<?xml version="1.0"?>
<svg viewBox="0 0 306 344.35" xmlns="http://www.w3.org/2000/svg" xmlns:svg="http://www.w3.org/2000/svg" enable-background="new 0 0 306 344.35" version="1.1" xml:space="preserve">
 <g class="layer">
  <title>Layer 1</title>
  <path d="m302.11,258.26c2.4,-4.16 3.89,-8.84 3.89,-13.05l0,-146.07c0,-4.21 -1.49,-8.89 -3.89,-13.05l-149.11,86.09l149.11,86.08z" fill="#822c98" id="path2"/>
  <path d="m166.25,341.19l126.5,-73.03c3.64,-2.1 6.96,-5.74 9.36,-9.9l-149.11,-86.08l-149.11,86.08c2.4,4.16 5.72,7.8 9.36,9.9l126.5,73.03c7.29,4.21 19.21,4.21 26.5,0z" fill="#68217a" id="path4" transform="matrix(1, 0, 0, 1, 0, 0)"/>
  <path d="m302.11,86.09c-2.4,-4.16 -5.72,-7.8 -9.36,-9.9l-126.5,-73.03c-7.29,-4.21 -19.21,-4.21 -26.5,0l-126.5,73.03c-7.29,4.21 -13.25,14.53 -13.25,22.95l0,146.07c0,4.21 1.49,8.89 3.89,13.05l149.11,-86.08l149.11,-86.09z" fill="#953dac" id="path6" transform="matrix(1, 0, 0, 1, 0, 0)"/>
  <g id="g10" transform="matrix(1, 0, 0, 1, 0, 0)">
   <path d="m153,274.18c-56.24,0 -102,-45.76 -102,-102s45.76,-102 102,-102c36.29,0 70.14,19.53 88.33,50.96l-44.14,25.55c-9.11,-15.74 -26.04,-25.51 -44.19,-25.51c-28.12,0 -51,22.87 -51,51c0,28.12 22.88,51 51,51c18.15,0 35.09,-9.78 44.19,-25.52l44.14,25.54c-18.19,31.44 -52.04,50.98 -88.33,50.98z" fill="#FFFFFF" id="path8"/>
  </g>
  <path d="m226.66,178.64l0,7.03l42.67,0l0,-7.03l-42.67,0zm2.43,-20.17l0,7.03l42.68,0l0,-7.03l-42.68,0zm10.04,-12.02l-8.93,51.24l8.63,0l8.92,-51.24l-8.62,0m19.52,0l-8.92,51.24l8.62,0l8.93,-51.24l-8.63,0" fill="#ffffff" id="path2993-6" transform="matrix(1, 0, 0, 1, 0, 0)"/>
 </g>

</svg>