<?xml version="1.0"?>
<svg viewBox="0 0 454 512" xmlns="http://www.w3.org/2000/svg" xmlns:svg="http://www.w3.org/2000/svg">
 <g class="layer">
  <title>Layer 1</title>
  <g id="svg_5">
   <path d="m42.36,460.82l-41.09,-460.82l451.46,0l-41.13,460.75l-184.88,51.25l-184.36,-51.18z" fill="#264de4" id="svg_1"/>
   <path d="m376.39,431.41l35.15,-393.73l-184.54,0l0,435.14l149.39,-41.41z" fill="#2965f1" id="svg_2"/>
   <path d="m95.46,208.59l5.07,56.52l126.47,0l0,-56.52l-131.54,0zm-5.04,-57.87l136.58,0l0,-56.52l-141.72,0l5.14,56.52zm136.58,204.65l-0.25,0.07l-62.94,-17l-4.03,-45.07l-56.73,0l7.92,88.74l115.77,32.14l0.26,-0.08l0,-58.8z" fill="#ebebeb" id="svg_3"/>
   <path d="m226.81,208.59l0,56.52l69.59,0l-6.56,73.3l-63.04,17.01l0,58.8l115.87,-32.11l0.85,-9.55l13.28,-148.79l1.38,-15.18l10.2,-114.39l-141.57,0l0,56.52l79.63,0l-5.14,57.87l-74.49,0z" fill="#fff" id="svg_4"/>
  </g>
 </g>

</svg>