<?xml version="1.0"?>
<svg viewBox="0 0 122 117" xmlns="http://www.w3.org/2000/svg" xmlns:svg="http://www.w3.org/2000/svg">
 <defs>
  <linearGradient id="dot-net-original-wordmark-a" x1="0" x2="0" y1="0" y2="0">
   <stop offset="0" stop-color="#0994DC"/>
   <stop offset="0.35" stop-color="#66CEF5"/>
   <stop offset="0.35" stop-color="#66CEF5"/>
   <stop offset="0.85" stop-color="#127BCA"/>
   <stop offset="0.85" stop-color="#127BCA"/>
   <stop offset="1" stop-color="#127BCA"/>
  </linearGradient>
  <linearGradient id="dot-net-original-wordmark-b" x1="0.5" x2="0.5" y1="-0.2" y2="1.29">
   <stop offset="0" stop-color="#0E76BC"/>
   <stop offset="0.36" stop-color="#36AEE8"/>
   <stop offset="0.36" stop-color="#36AEE8"/>
   <stop offset="0.85" stop-color="#00ADEF"/>
   <stop offset="0.85" stop-color="#00ADEF"/>
   <stop offset="1" stop-color="#00ADEF"/>
  </linearGradient>
  <linearGradient id="dot-net-original-wordmark-c" x1="0.5" x2="0.5" y1="1.11" y2="-0.06">
   <stop offset="0" stop-color="#1C63B7"/>
   <stop offset="0.5" stop-color="#33BDF2"/>
   <stop offset="1" stop-color="#33BDF2" stop-opacity="0.42"/>
  </linearGradient>
  <linearGradient id="dot-net-original-wordmark-d" x1="0.5" x2="0.5" y1="-0.2" y2="1.29">
   <stop offset="0" stop-color="#166AB8"/>
   <stop offset="0.4" stop-color="#36AEE8"/>
   <stop offset="0.4" stop-color="#36AEE8"/>
   <stop offset="0.85" stop-color="#0798DD"/>
   <stop offset="0.85" stop-color="#0798DD"/>
   <stop offset="1" stop-color="#0798DD"/>
  </linearGradient>
  <linearGradient id="dot-net-original-wordmark-e" x1="0.51" x2="0.51" y1="-0.19" y2="1.3">
   <stop offset="0" stop-color="#124379"/>
   <stop offset="0.39" stop-color="#1487CB"/>
   <stop offset="0.39" stop-color="#1487CB"/>
   <stop offset="0.78" stop-color="#165197"/>
   <stop offset="0.78" stop-color="#165197"/>
   <stop offset="1" stop-color="#165197"/>
  </linearGradient>
  <linearGradient id="dot-net-original-wordmark-f" x1="-0.05" x2="0.95" y1="0.45" y2="0.45">
   <stop offset="0" stop-color="#33BDF2" stop-opacity="0.7"/>
   <stop offset="1" stop-color="#1DACD8"/>
  </linearGradient>
  <linearGradient id="dot-net-original-wordmark-g" x1="0.5" x2="0.5" y1="0.94" y2="-0.03">
   <stop offset="0" stop-color="#136AB4"/>
   <stop offset="0.6" stop-color="#59CAF5" stop-opacity="0.55"/>
   <stop offset="1" stop-color="#59CAF5" stop-opacity="0.23"/>
  </linearGradient>
  <linearGradient id="dot-net-original-wordmark-h" x1="-0.01" x2="0.99" y1="0.48" y2="0.48">
   <stop offset="0" stop-color="#05A1E6" stop-opacity="0.25"/>
   <stop offset="1" stop-color="#05A1E6"/>
  </linearGradient>
  <linearGradient id="dot-net-original-wordmark-i" x1="0.51" x2="0.51" y1="1.24" y2="-0.09">
   <stop offset="0" stop-color="#318ED5"/>
   <stop offset="1" stop-color="#38A7E4"/>
  </linearGradient>
  <linearGradient id="dot-net-original-wordmark-j" x1="0.49" x2="0.49" y1="0.91" y2="-0.77">
   <stop offset="0" stop-color="#05A1E6"/>
   <stop offset="1" stop-color="#05A1E6" stop-opacity="0.55"/>
  </linearGradient>
  <linearGradient id="dot-net-original-wordmark-k" x1="0.51" x2="0.51" y1="1" y2="0">
   <stop offset="0" stop-color="#1959A6"/>
   <stop offset="0.5" stop-color="#05A1E6"/>
   <stop offset="0.5" stop-color="#05A1E6"/>
   <stop offset="0.92" stop-color="#7EC5EA"/>
   <stop offset="1" stop-color="#7EC5EA"/>
  </linearGradient>
  <linearGradient id="dot-net-original-wordmark-l" x1="0.6" x2="0.38" y1="0.94" y2="0.06">
   <stop offset="0" stop-color="#165096"/>
   <stop offset="1" stop-color="#0D82CA"/>
  </linearGradient>
  <linearGradient id="dot-net-original-wordmark-m" x1="0.49" x2="0.49" y1="0.77" y2="-0.04">
   <stop offset="0" stop-color="#05A1E6"/>
   <stop offset="0.87" stop-color="#0495D6"/>
   <stop offset="1" stop-color="#0495D6"/>
  </linearGradient>
  <linearGradient id="dot-net-original-wordmark-n" x1="0.66" x2="0.35" y1="-0.04" y2="1.06">
   <stop offset="0" stop-color="#38A7E4" stop-opacity="0.33"/>
   <stop offset="0.96" stop-color="#0E88D3"/>
   <stop offset="0.96" stop-color="#0E88D3"/>
   <stop offset="1" stop-color="#0E88D3"/>
  </linearGradient>
  <linearGradient id="dot-net-original-wordmark-o" x1="0.49" x2="0.49" y1="0" y2="1.02">
   <stop offset="0" stop-color="#168CD4"/>
   <stop offset="0.5" stop-color="#1C87CC"/>
   <stop offset="1" stop-color="#154B8D"/>
  </linearGradient>
  <linearGradient id="dot-net-original-wordmark-p" x1="-0.07" x2="3.53" y1="3.96" y2="-7.53">
   <stop offset="0" stop-color="#97D6EE"/>
   <stop offset="0.7" stop-color="#55C1EA"/>
   <stop offset="1" stop-color="#55C1EA"/>
  </linearGradient>
  <linearGradient id="dot-net-original-wordmark-q" x1="0.48" x2="3.97" y1="-1.05" y2="4.54">
   <stop offset="0" stop-color="#7ACCEC"/>
   <stop offset="1" stop-color="#3FB7ED"/>
  </linearGradient>
  <linearGradient id="dot-net-original-wordmark-r" x1="0.49" x2="0.49" y1="0.06" y2="1.28">
   <stop offset="0" stop-color="#1DA7E7"/>
   <stop offset="1" stop-color="#37ABE7" stop-opacity="0"/>
  </linearGradient>
 </defs>
 <g class="layer">
  <title>Layer 1</title>
  <g id="svg_37">
   <path d="m27.83,72.24l-1.74,0l0,-9.97c0,-0.78 0.05,-1.74 0.15,-2.87l-0.04,0c-0.17,0.66 -0.32,1.14 -0.45,1.43l-5.06,11.41l-0.85,0l-5.07,-11.32c-0.14,-0.32 -0.29,-0.83 -0.44,-1.52l-0.04,0c0.06,0.59 0.09,1.56 0.09,2.89l0,9.95l-1.68,0l0,-14.84l2.29,0l4.56,10.35c0.34,0.78 0.56,1.37 0.67,1.77l0.07,0c0.3,-0.81 0.53,-1.42 0.71,-1.82l4.65,-10.3l2.18,0l0,14.84l0,0zm5.36,0l-1.69,0l0,-10.6l1.69,0l0,10.6zm0.29,-14.4c0,0.32 -0.11,0.58 -0.33,0.79a1.07,1.07 0 0 1 -0.79,0.32c-0.3,0 -0.56,-0.1 -0.78,-0.31c-0.21,-0.21 -0.32,-0.47 -0.32,-0.8c0,-0.3 0.11,-0.57 0.32,-0.78c0.22,-0.21 0.48,-0.31 0.78,-0.31c0.31,0 0.58,0.1 0.79,0.31c0.22,0.22 0.33,0.48 0.33,0.78m10.28,13.91c-0.81,0.5 -1.78,0.74 -2.9,0.74c-1.52,0 -2.74,-0.5 -3.68,-1.51c-0.91,-0.98 -1.36,-2.24 -1.36,-3.78c0,-1.74 0.5,-3.15 1.5,-4.21c0.99,-1.07 2.33,-1.61 4.01,-1.61c0.92,0 1.74,0.18 2.46,0.54l0,1.74c-0.79,-0.55 -1.63,-0.83 -2.53,-0.83c-1.08,0 -1.96,0.38 -2.64,1.13c-0.71,0.77 -1.06,1.8 -1.06,3.08c0,1.23 0.32,2.21 0.98,2.93c0.65,0.72 1.52,1.08 2.62,1.08c0.92,0 1.79,-0.31 2.6,-0.91l0,1.61l0,0zm8.1,-8.39c-0.3,-0.23 -0.73,-0.34 -1.3,-0.34c-0.69,0 -1.27,0.31 -1.74,0.93c-0.53,0.69 -0.79,1.66 -0.79,2.89l0,5.4l-1.7,0l0,-10.6l1.7,0l0,2.19l0.04,0c0.25,-0.78 0.63,-1.37 1.15,-1.79a2.54,2.54 0 0 1 1.62,-0.58c0.45,0 0.79,0.05 1.01,0.14l0,1.76l0.01,0zm9.45,3.6c0,-1.36 -0.31,-2.4 -0.92,-3.1c-0.6,-0.69 -1.43,-1.03 -2.5,-1.03c-1.05,0 -1.9,0.35 -2.53,1.04c-0.67,0.74 -1,1.78 -1,3.13c0,1.27 0.32,2.26 0.96,2.97c0.64,0.72 1.5,1.08 2.57,1.08c1.12,0 1.97,-0.37 2.56,-1.09c0.57,-0.71 0.86,-1.71 0.86,-3m1.74,-0.06c0,1.69 -0.48,3.04 -1.43,4.06c-0.96,1.02 -2.24,1.53 -3.85,1.53c-1.59,0 -2.86,-0.51 -3.79,-1.53c-0.91,-0.98 -1.36,-2.28 -1.36,-3.9c0,-1.84 0.51,-3.26 1.55,-4.27c0.96,-0.94 2.24,-1.41 3.84,-1.41c1.58,0 2.82,0.5 3.71,1.47c0.88,0.98 1.33,2.33 1.33,4.05m8.41,2.5c0,0.87 -0.33,1.59 -0.98,2.16c-0.71,0.62 -1.68,0.93 -2.9,0.93c-1.01,0 -1.88,-0.21 -2.63,-0.64l0,-1.82c0.83,0.68 1.75,1.02 2.75,1.02c1.35,0 2.02,-0.5 2.02,-1.49a1.31,1.31 0 0 0 -0.45,-1.02c-0.29,-0.27 -0.87,-0.59 -1.74,-0.97c-0.88,-0.39 -1.52,-0.79 -1.89,-1.2c-0.45,-0.49 -0.67,-1.13 -0.67,-1.92c0,-0.88 0.35,-1.61 1.04,-2.19c0.7,-0.59 1.6,-0.88 2.7,-0.88c0.84,0 1.59,0.17 2.26,0.5l0,1.71c-0.7,-0.51 -1.5,-0.76 -2.4,-0.76c-0.57,0 -1.02,0.14 -1.35,0.41a1.32,1.32 0 0 0 -0.51,1.07c0,0.47 0.14,0.83 0.42,1.1c0.25,0.24 0.79,0.53 1.59,0.88c0.91,0.38 1.56,0.77 1.96,1.17c0.52,0.51 0.78,1.16 0.78,1.94m10.36,-2.44c0,-1.36 -0.3,-2.4 -0.92,-3.1c-0.59,-0.69 -1.42,-1.03 -2.49,-1.03c-1.06,0 -1.9,0.35 -2.54,1.04c-0.66,0.74 -1,1.78 -1,3.13c0,1.27 0.32,2.26 0.96,2.97c0.64,0.72 1.5,1.08 2.58,1.08c1.12,0 1.97,-0.37 2.55,-1.09c0.57,-0.71 0.86,-1.71 0.86,-3m1.74,-0.06c0,1.69 -0.48,3.04 -1.43,4.06c-0.95,1.02 -2.23,1.53 -3.85,1.53c-1.59,0 -2.85,-0.51 -3.78,-1.53c-0.91,-0.98 -1.37,-2.28 -1.37,-3.9c0,-1.84 0.52,-3.26 1.55,-4.27c0.96,-0.94 2.24,-1.41 3.85,-1.41c1.58,0 2.81,0.5 3.7,1.47c0.88,0.98 1.33,2.33 1.33,4.05m7.48,-8.86a2.28,2.28 0 0 0 -1.13,-0.28c-1.19,0 -1.78,0.75 -1.78,2.25l0,1.63l2.49,0l0,1.44l-2.49,0l0,9.16l-1.69,0l0,-9.16l-1.81,0l0,-1.44l1.81,0l0,-1.72c0,-1.16 0.35,-2.08 1.08,-2.74c0.62,-0.57 1.38,-0.85 2.29,-0.85c0.52,0 0.93,0.06 1.23,0.18l0,1.53zm6.69,14.09c-0.4,0.23 -0.93,0.34 -1.59,0.34c-1.85,0 -2.77,-1.04 -2.77,-3.12l0,-6.27l-1.82,0l0,-1.44l1.82,0l0,-2.58c0.54,-0.17 1.1,-0.36 1.7,-0.55l0,3.13l2.66,0l0,1.44l-2.66,0l0,5.98c0,0.71 0.11,1.22 0.35,1.51c0.25,0.31 0.65,0.46 1.21,0.46c0.43,0 0.79,-0.12 1.1,-0.35l0,1.45zm-91.68,41.46c0,0.83 -0.3,1.55 -0.9,2.16a2.94,2.94 0 0 1 -2.17,0.91a2.82,2.82 0 0 1 -2.11,-0.91a3.01,3.01 0 0 1 -0.87,-2.16c0,-0.85 0.29,-1.57 0.87,-2.17a2.83,2.83 0 0 1 2.11,-0.9c0.85,0 1.58,0.31 2.17,0.91c0.6,0.61 0.9,1.33 0.9,2.16m37.97,2.44l-5.53,0l-20.08,-31.01a14.23,14.23 0 0 1 -1.21,-2.44l-0.17,0c0.14,0.83 0.22,2.62 0.22,5.35l0,28.1l-4.56,0l0,-38.9l5.92,0l19.47,30.52c0.78,1.21 1.31,2.08 1.58,2.6l0.11,0c-0.18,-1.12 -0.28,-3.03 -0.28,-5.72l0,-27.4l4.53,0l0,38.9l0,0zm29.24,0l-20.62,0l0,-38.9l19.72,0l0,4.12l-15.17,0l0,12.94l14.06,0l0,4.13l-14.06,0l0,13.59l16.07,0l0,4.12zm31.27,-34.78l-11.21,0l0,34.78l-4.55,0l0,-34.78l-11.23,0l0,-4.12l26.99,0l0,4.12z" id="svg_1"/>
   <path d="m42.48,9.93c4.4,13.46 6.06,37.45 18.92,37.45c0.98,0 1.97,-0.09 2.97,-0.28c-11.7,-2.73 -13.08,-26.46 -20.22,-38.76a59.74,59.74 0 0 0 -1.67,1.59" fill="url(#dot-net-original-wordmark-a)" id="svg_2"/>
   <path d="m44.15,8.34c7.14,12.3 8.52,36.03 20.22,38.76a18.54,18.54 0 0 0 2.76,-0.75c-10.5,-5.14 -13.4,-28.19 -21.5,-39.29c-0.49,0.41 -0.99,0.84 -1.48,1.28" fill="url(#dot-net-original-wordmark-b)" id="svg_3"/>
   <path d="m54.43,1.03c-0.97,0 -1.97,0.1 -2.96,0.29c-2.6,0.49 -5.25,1.61 -7.91,3.31a19.65,19.65 0 0 1 2.07,2.44c2.71,-2.25 5.4,-3.92 8.09,-4.92a18.1,18.1 0 0 1 3.01,-0.83a9.23,9.23 0 0 0 -2.3,-0.29" fill="#14559A" id="svg_4"/>
   <path d="m75.32,41.61a47.07,47.07 0 0 0 3.23,-2.83c-4.47,-13.39 -6.07,-37.73 -19.02,-37.73c-0.93,0 -1.86,0.09 -2.8,0.26c11.8,2.94 13.31,28.61 18.59,40.3" fill="url(#dot-net-original-wordmark-c)" id="svg_5"/>
   <path d="m56.73,1.31a9.28,9.28 0 0 0 -2.3,-0.28l5.1,0.02c-0.93,0 -1.86,0.09 -2.8,0.26" fill="#3092C4" id="svg_6"/>
   <path d="m75.1,44.46a19.14,19.14 0 0 1 -1.46,-1.58c-2.18,1.54 -4.35,2.71 -6.51,3.47c0.77,0.38 1.57,0.65 2.42,0.83a10.22,10.22 0 0 0 2.07,0.2c2.42,0 4.34,-0.28 5.96,-1.07c-0.89,-0.48 -1.72,-1.11 -2.48,-1.85" fill="#1969BC" id="svg_7"/>
   <path d="m53.72,2.16c10.57,5.52 11.48,30.55 19.92,40.72c0.56,-0.4 1.12,-0.82 1.68,-1.27c-5.28,-11.69 -6.79,-37.37 -18.59,-40.3a18.21,18.21 0 0 0 -3.01,0.85" fill="url(#dot-net-original-wordmark-d)" id="svg_8"/>
   <path d="m45.63,7.06c8.1,11.1 11,34.15 21.5,39.29c2.16,-0.76 4.33,-1.93 6.51,-3.47c-8.44,-10.16 -9.36,-35.2 -19.92,-40.72c-2.69,0.99 -5.38,2.66 -8.09,4.9" fill="url(#dot-net-original-wordmark-e)" id="svg_9"/>
   <path d="m37.29,9.61c-1.27,2.87 -2.57,6.65 -4.13,11.57c3.11,-4.39 6.22,-8.18 9.32,-11.25a33.91,33.91 0 0 0 -1.38,-3.59a46.51,46.51 0 0 0 -3.81,3.27" fill="url(#dot-net-original-wordmark-f)" id="svg_10"/>
   <path d="m42.23,5.51c-0.38,0.27 -0.75,0.54 -1.13,0.83a33.78,33.78 0 0 1 1.38,3.59a65.93,65.93 0 0 1 1.67,-1.59a22.66,22.66 0 0 0 -1.92,-2.83" fill="#2B74B1" id="svg_11"/>
   <path d="m43.56,4.63c-0.45,0.28 -0.89,0.57 -1.34,0.88a22.38,22.38 0 0 1 1.93,2.84c0.5,-0.45 0.99,-0.88 1.48,-1.29a19.56,19.56 0 0 0 -2.07,-2.43" fill="#125A9E" id="svg_12"/>
   <path d="m115.64,0.01c-5.98,23.05 -18.46,41.56 -28.92,46.23l-0.03,0l-0.56,0.24l-0.07,0.03l-0.16,0.06l-0.07,0.03l-0.26,0.09l-0.11,0.04l-0.13,0.04l-0.13,0.05l-0.11,0.04l-0.22,0.06l-0.1,0.03l-0.15,0.04l-0.1,0.03l-0.16,0.04l-0.2,0.04c0.47,0.18 0.96,0.27 1.49,0.27c9.93,0 19.93,-17.79 36.49,-47.37l-6.5,0l0,0.01z" fill="url(#dot-net-original-wordmark-g)" id="svg_13"/>
   <path d="m31,1.97l0.02,-0.02l0.02,-0.01l0.01,0l0.17,-0.06l0.03,-0.02l0.04,-0.02l0.17,-0.06l0.01,0l0.38,-0.13l0.06,-0.02l0.16,-0.05l0.08,-0.02l0.16,-0.05l0.06,-0.02l0.55,-0.14l0.07,-0.02l0.16,-0.03l0.08,-0.02l0.16,-0.03l0.04,0l0.33,-0.06l0.07,0l0.15,-0.03l0.09,-0.01l0.14,-0.03l0.08,-0.01l0.36,-0.03a11.4,11.4 0 0 0 -1.06,-0.06c-11.17,0 -26.57,20.74 -33.51,47.6l1.34,0a388.23,388.23 0 0 0 6.04,-11.22c4.85,-19.02 14.75,-32 23.54,-35.44" fill="url(#dot-net-original-wordmark-h)" id="svg_14"/>
   <path d="m37.29,9.61a46.68,46.68 0 0 1 3.81,-3.27a17.9,17.9 0 0 0 -0.91,-1.75c-1.02,1.24 -1.95,2.88 -2.9,5.02m0.92,-7.48c0.73,0.61 1.38,1.45 1.98,2.46a9.1,9.1 0 0 1 0.58,-0.65a11.29,11.29 0 0 0 -2.7,-1.89l0.12,0.06l0.02,0.02" fill="#0D82CA" id="svg_15"/>
   <path d="m7.46,37.4c10.19,-19.64 15.02,-32.07 23.54,-35.43c-8.79,3.44 -18.68,16.41 -23.54,35.43" fill="url(#dot-net-original-wordmark-i)" id="svg_16"/>
   <path d="m40.77,3.94c-0.2,0.21 -0.39,0.42 -0.58,0.65c0.32,0.54 0.62,1.12 0.91,1.75c0.38,-0.29 0.75,-0.56 1.13,-0.83a15.34,15.34 0 0 0 -1.46,-1.57" fill="#127BCA" id="svg_17"/>
   <path d="m12.09,48.53l-0.19,0.03l-0.04,0l-0.15,0.01l-0.03,0l-0.37,0.03l-0.04,0c10.31,-0.29 15.03,-5.46 17.37,-12.95c1.78,-5.68 3.24,-10.46 4.52,-14.47c-4.32,6.08 -8.66,13.33 -13.03,21.45c-2.1,3.91 -5.3,5.55 -8.04,5.89" fill="url(#dot-net-original-wordmark-j)" id="svg_18"/>
   <path d="m12.09,48.53c2.74,-0.35 5.94,-1.98 8.04,-5.9c4.37,-8.12 8.71,-15.37 13.03,-21.45c1.57,-4.93 2.86,-8.7 4.13,-11.57c-8.6,8.18 -17.24,21.8 -25.2,38.91" fill="url(#dot-net-original-wordmark-k)" id="svg_19"/>
   <path d="m7.46,37.4a389.83,389.83 0 0 1 -6.04,11.22l3.89,0a94.93,94.93 0 0 1 2.15,-11.22" fill="#05A1E6" id="svg_20"/>
   <path d="m34.3,1.12l-0.09,0.02l-0.14,0.02l-0.09,0.01l-0.15,0.03l-0.07,0.02l-0.33,0.05l-0.04,0l-0.16,0.04l-0.08,0.02l-0.16,0.03l-0.07,0.02l-0.55,0.14l-0.06,0.02l-0.16,0.05l-0.08,0.02l-0.16,0.04l-0.06,0.02l-0.38,0.13l-0.17,0.06l-0.08,0.03l-0.16,0.06l-0.05,0.03c-8.52,3.36 -13.35,15.79 -23.54,35.43a94.6,94.6 0 0 0 -2.15,11.22l0.54,0l3.74,-0.02l1.72,0l0.37,-0.02l0.03,0l0.15,-0.02l0.04,0l0.19,-0.02c7.96,-17.11 16.6,-30.73 25.2,-38.92c0.95,-2.14 1.88,-3.78 2.9,-5.02c-0.6,-1.01 -1.25,-1.85 -1.98,-2.46l-0.02,-0.02l-0.12,-0.06l-0.12,-0.06l-0.12,-0.06l-0.14,-0.06l-0.1,-0.04l-0.23,-0.1l-0.1,-0.03l-0.16,-0.07l-0.1,-0.03l-0.23,-0.08l-0.02,0l-0.27,-0.08l-0.06,-0.02l-0.23,-0.06l-0.05,-0.02a6.96,6.96 0 0 0 -0.57,-0.12l-0.06,-0.02l-0.24,-0.04l-0.05,-0.01l-0.29,-0.04l-0.05,0l-0.23,-0.02l-0.35,0.03" fill="url(#dot-net-original-wordmark-l)" id="svg_21"/>
   <path d="m92.3,12.77c-1.96,6.28 -3.55,11.46 -4.93,15.73c5.38,-7.41 10.67,-16.72 15.72,-27.47c-5.89,1.85 -9.03,6.08 -10.79,11.74" fill="url(#dot-net-original-wordmark-m)" id="svg_22"/>
   <path d="m87.54,45.85c-0.28,0.14 -0.55,0.27 -0.82,0.39c10.46,-4.66 22.95,-23.18 28.92,-46.23l-1.21,0c-13.73,24.53 -18.15,40.95 -26.89,45.84" fill="url(#dot-net-original-wordmark-n)" id="svg_23"/>
   <path d="m80.7,43.79c2.28,-2.78 4.13,-7.5 6.67,-15.29c-2.92,4.01 -5.86,7.46 -8.81,10.27l-0.01,0.03c0.64,1.92 1.34,3.62 2.15,4.99" fill="#079AE1" id="svg_24"/>
   <path d="m80.7,43.79c-0.77,0.95 -1.6,1.67 -2.51,2.2c-0.2,0.12 -0.4,0.23 -0.61,0.33c0.97,0.52 2.02,0.86 3.2,1l0.52,0.05l0.03,0l0.25,0.01l0.85,0l0.1,-0.01l0.19,-0.02l0.09,0l0.2,-0.02l0.02,0l0.06,-0.01l0.22,-0.04l0.06,0l0.25,-0.04l0.04,0l0.49,-0.1c-1.35,-0.5 -2.48,-1.66 -3.46,-3.32" fill="#1969BC" id="svg_25"/>
   <path d="m61.4,47.38c0.98,0 1.97,-0.09 2.97,-0.28c0.91,-0.17 1.84,-0.43 2.76,-0.75a10.09,10.09 0 0 0 4.49,1.03l-10.22,0zm10.22,0c2.42,0 4.34,-0.28 5.96,-1.07a8.8,8.8 0 0 0 3.2,1.01l0.52,0.05l0.03,0l0.25,0.01l0.3,0l-10.26,0z" fill="#1E5CB3" id="svg_26"/>
   <path d="m81.88,47.38l0.56,0l0.1,-0.01l0.19,-0.02l0.09,0l0.2,-0.02l0.02,0l0.06,-0.02l0.22,-0.03l0.07,-0.01l0.24,-0.04l0.04,0l0.49,-0.11a4.28,4.28 0 0 0 1.5,0.26l-3.77,0.02l-0.01,-0.02z" fill="#1D60B5" id="svg_27"/>
   <path d="m78.55,38.8l0,-0.02a46.86,46.86 0 0 1 -3.23,2.83c-0.56,0.45 -1.12,0.87 -1.68,1.27a19.14,19.14 0 0 0 1.46,1.58c0.77,0.74 1.59,1.37 2.49,1.85c0.2,-0.1 0.41,-0.21 0.6,-0.32c0.92,-0.54 1.74,-1.26 2.51,-2.2c-0.8,-1.37 -1.5,-3.07 -2.14,-4.99" fill="#175FAB" id="svg_28"/>
   <path d="m110.6,0.01l-6.1,0l-0.97,0.05l-0.45,0.96c-5.04,10.75 -10.34,20.06 -15.72,27.47c-2.53,7.78 -4.39,12.51 -6.67,15.29c0.97,1.66 2.11,2.83 3.45,3.32l0.11,-0.02l0.02,0l0.08,-0.02l0.16,-0.04l0.1,-0.03l0.16,-0.04l0.09,-0.03l0.22,-0.06l0.12,-0.04l0.12,-0.05l0.13,-0.04l0.11,-0.04l0.26,-0.09l0.07,-0.03l0.16,-0.06l0.07,-0.02l0.57,-0.25l0.02,0c0.27,-0.12 0.54,-0.25 0.81,-0.39c8.75,-4.89 13.17,-21.31 26.9,-45.84l-3.83,0l0.01,0z" fill="url(#dot-net-original-wordmark-o)" id="svg_29"/>
   <path d="m34.65,1.09l0.07,0.01l0.15,0.02l0.06,0l0.29,0.04l0.05,0.01l0.24,0.05l0.06,0.01l0.57,0.13l0.05,0.01l0.23,0.07l0.06,0.01l0.27,0.08l0.02,0.02l0.24,0.08l0.09,0.03l0.17,0.07l0.09,0.03l0.23,0.09l0.11,0.05l0.13,0.06l0.12,0.06l0.12,0.06a11.28,11.28 0 0 1 2.7,1.89c0.31,-0.32 0.63,-0.61 0.96,-0.87c-1.82,-1.29 -3.87,-2.02 -6.25,-2.02c-0.27,0 -0.55,0.01 -0.83,0.03" fill="#7DCBEC" id="svg_30"/>
   <path d="m40.77,3.94c0.51,0.48 1,1.01 1.46,1.57c0.44,-0.31 0.88,-0.6 1.33,-0.88a13.92,13.92 0 0 0 -1.83,-1.56a8.42,8.42 0 0 0 -0.96,0.87" fill="#5EC5ED" id="svg_31"/>
   <g id="svg_32" transform="matrix(5.048, 0, 0, -5.048, -9064.26, 2270.61)">
    <path d="m1802.43,449.57l0.16,0.01c0.47,0 0.88,-0.15 1.24,-0.4c0.38,0.3 0.84,0.4 1.47,0.4l-3.08,0l0.21,-0.01" fill="url(#dot-net-original-wordmark-p)" id="svg_33"/>
   </g>
   <g id="svg_34" transform="matrix(5.048, 0, 0, -5.048, -9064.26, 2270.61)">
    <path d="m1805.3,449.58c-0.63,0 -1.09,-0.1 -1.47,-0.4c0.12,-0.09 0.24,-0.19 0.36,-0.31c0.53,0.34 1.05,0.56 1.57,0.66c0.19,0.03 0.39,0.05 0.58,0.05l-1.04,0l0,0z" fill="url(#dot-net-original-wordmark-q)" id="svg_35"/>
   </g>
   <path d="m87.37,28.5c1.38,-4.27 2.96,-9.45 4.93,-15.73c1.77,-5.66 4.9,-9.89 10.79,-11.74l0.45,-0.96c-9.59,0.57 -14.08,5.46 -16.33,12.69c-3.95,12.62 -6.34,20.8 -8.65,26.01c2.94,-2.81 5.88,-6.26 8.81,-10.27" fill="url(#dot-net-original-wordmark-r)" id="svg_36"/>
  </g>
 </g>
</svg>