<?xml version="1.0" encoding="UTF-8" standalone="no"?>
<!-- Generator: Adobe Illustrator 16.0.0, SVG Export Plug-In . SVG Version: 6.00 Build 0)  -->
<svg xmlns:dc="http://purl.org/dc/elements/1.1/" xmlns:cc="http://creativecommons.org/ns#" xmlns:rdf="http://www.w3.org/1999/02/22-rdf-syntax-ns#" xmlns:svg="http://www.w3.org/2000/svg" xmlns="http://www.w3.org/2000/svg" xmlns:sodipodi="http://sodipodi.sourceforge.net/DTD/sodipodi-0.dtd" xmlns:inkscape="http://www.inkscape.org/namespaces/inkscape" version="1.1" id="Capa_1" x="0px" y="0px" width="765.001px" height="160.812px" viewBox="0 0 765.001 160.812" enable-background="new 0 0 765.001 160.812" xml:space="preserve" inkscape:version="0.48.2 r9819" sodipodi:docname="Kinect logo.svg"><metadata id="metadata28"><rdf:RDF><cc:Work rdf:about=""><dc:format>image/svg+xml</dc:format><dc:type rdf:resource="http://purl.org/dc/dcmitype/StillImage"/></cc:Work></rdf:RDF></metadata><defs id="defs26">
	

		
		
		
		
		
	</defs><sodipodi:namedview pagecolor="#ffffff" bordercolor="#666666" borderopacity="1" objecttolerance="10" gridtolerance="10" guidetolerance="10" inkscape:pageopacity="0" inkscape:pageshadow="2" inkscape:window-width="1600" inkscape:window-height="837" id="namedview24" showgrid="false" inkscape:zoom="1" inkscape:cx="594.91295" inkscape:cy="171.29249" inkscape:window-x="-8" inkscape:window-y="-8" inkscape:window-maximized="1" inkscape:current-layer="Capa_1"/>
<path d="m 177.861,2.313 v 155.953 h -35.17 V 2.313 h 35.17 z" id="path6" inkscape:connector-curvature="0" style="fill:#6a47bd"/><path d="M 208.398,158.267 V 2.313 h 41.186 l 32.394,57.152 c 9.255,16.428 18.279,35.865 25.452,53.45 h 0.463 C 305.81,92.322 305.116,71.266 305.116,47.665 V 2.313 H 337.51 V 158.266 H 300.489 L 267.17,98.106 C 257.915,81.447 247.503,61.316 240.098,43.037 h -0.926 c 1.157,20.825 1.62,42.807 1.62,68.259 v 46.971 h -32.394 z" id="path8" inkscape:connector-curvature="0" style="fill:#6a47bd"/><path d="m 460.831,92.322 h -57.384 v 37.021 h 64.094 v 28.923 H 368.277 V 2.313 h 96.024 V 31.236 H 403.447 V 63.63 h 57.384 v 28.692 z" id="path10" inkscape:connector-curvature="0" style="fill:#6a47bd"/><path d="m 605.904,154.102 c -6.247,3.008 -21.056,6.71 -39.798,6.71 -53.913,0 -81.679,-33.782 -81.679,-78.208 0,-53.218 37.948,-82.604 85.15,-82.604 18.279,0 32.162,3.471 38.409,6.941 l -7.404,27.766 c -6.941,-3.008 -16.891,-5.785 -29.617,-5.785 -27.766,0 -49.516,16.891 -49.516,51.599 0,31.237 18.511,50.904 49.747,50.904 10.875,0 22.444,-2.082 29.617,-5.09 l 5.091,27.767 z" id="path12" inkscape:connector-curvature="0" style="fill:#6a47bd"/><path d="M 662.815,31.931 H 620.703 V 2.313 H 740.56 V 31.93 h -42.575 v 126.336 h -35.17 V 31.931 z" id="path14" inkscape:connector-curvature="0" style="fill:#6a47bd"/>
<polygon id="K" points="129.688,158.164 71.958,78.206 126.125,2.039 85,2.039 35.625,78.039 35.625,2.039 0,2.039   0,158.164 35.625,158.164 35.625,82.372 85.521,158.164 " fill="#6A47BD"/>
<g id="TM">
	<g id="g18">
		<path d="M746.897,2.467h7.075v1.668H751.5v9.695h-2.118V4.135h-2.484V2.467z" id="path20" fill="#6A47BD"/>
		<path d="M757.353,13.831h-2.122V2.467h3.38l1.135,5.271c0.184,0.864,0.303,1.744,0.395,2.624h0.028    c0.107-1.123,0.183-1.879,0.334-2.624l1.139-5.271h3.36v11.364h-2.118v-3.576c0-2.257,0.044-4.515,0.18-6.772h-0.028    l-2.273,10.348h-1.29l-2.226-10.348h-0.076c0.136,2.257,0.184,4.515,0.184,6.772V13.831z" id="path22" fill="#6A47BD"/>
	</g>
</g>
</svg>