<?xml version="1.0"?>
<svg viewBox="0 0 135 92" xmlns="http://www.w3.org/2000/svg" xmlns:svg="http://www.w3.org/2000/svg">
 <g class="layer">
  <title>Layer 1</title>
  <g id="svg_6">
   <path d="m-25.88,-23.61l191.15,0l0,132.49l-191.15,0l0,-132.49z" fill="none" id="svg_1"/>
   <path d="m32.63,83.39l-5.17,0c-0.18,-8.73 -0.69,-16.94 -1.51,-24.64l-0.05,0l-7.88,24.64l-3.94,0l-7.83,-24.64l-0.04,0c-0.59,7.39 -0.95,15.6 -1.1,24.64l-4.72,0c0.3,-10.99 1.07,-21.3 2.29,-30.92l6.41,0l7.47,22.72l0.04,0l7.51,-22.72l6.14,0c1.35,11.27 2.14,21.58 2.38,30.92m22.45,-22.81c-2.11,11.43 -4.89,19.74 -8.34,24.93c-2.69,3.99 -5.63,5.99 -8.84,5.99c-0.86,0 -1.91,-0.26 -3.16,-0.77l0,-2.76c0.61,0.09 1.33,0.14 2.15,0.14c1.5,0 2.7,-0.41 3.62,-1.24c1.1,-1 1.65,-2.14 1.65,-3.39c0,-0.85 -0.43,-2.61 -1.28,-5.26l-5.68,-17.64l5.08,0l4.08,13.19c0.91,2.99 1.3,5.09 1.14,6.28c2.23,-5.96 3.79,-12.45 4.68,-19.47l4.9,0l0,0z" fill="#5d87a1" id="svg_2"/>
   <path d="m123.96,83.39l-14.7,0l0,-30.92l4.95,0l0,27.12l9.75,0l0,3.8zm-18.55,0.75l-5.68,-2.81c0.5,-0.41 0.99,-0.86 1.42,-1.38c2.42,-2.83 3.62,-7.03 3.62,-12.59c0,-10.23 -4.01,-15.35 -12.04,-15.35c-3.94,0 -7.01,1.3 -9.21,3.9c-2.42,2.84 -3.62,7.02 -3.62,12.55c0,5.43 1.07,9.42 3.2,11.95c1.96,2.29 4.91,3.44 8.85,3.44c1.47,0 2.82,-0.18 4.05,-0.54l7.4,4.3l2.01,-3.47zm-18.41,-6.93c-1.25,-2.02 -1.88,-5.25 -1.88,-9.71c0,-7.79 2.37,-11.68 7.1,-11.68c2.48,0 4.29,0.93 5.45,2.79c1.25,2.02 1.88,5.22 1.88,9.62c0,7.85 -2.37,11.77 -7.1,11.77c-2.47,0 -4.29,-0.93 -5.45,-2.79m-9.25,-2.39c0,2.63 -0.97,4.78 -2.89,6.46c-1.92,1.68 -4.5,2.52 -7.74,2.52c-3.02,0 -5.95,-0.97 -8.79,-2.89l1.33,-2.65c2.44,1.22 4.65,1.83 6.64,1.83c1.86,0 3.32,-0.41 4.37,-1.23c1.06,-0.83 1.69,-1.98 1.69,-3.44c0,-1.83 -1.28,-3.4 -3.63,-4.72c-2.17,-1.19 -6.51,-3.68 -6.51,-3.68c-2.34,-1.71 -3.52,-3.55 -3.52,-6.57c0,-2.51 0.88,-4.53 2.63,-6.07c1.76,-1.55 4.03,-2.32 6.8,-2.32c2.87,0 5.48,0.77 7.83,2.29l-1.19,2.66c-2.01,-0.85 -3.99,-1.28 -5.95,-1.28c-1.58,0 -2.81,0.38 -3.66,1.14c-0.86,0.77 -1.39,1.74 -1.39,2.94c0,1.83 1.31,3.42 3.73,4.76c2.19,1.19 6.63,3.72 6.63,3.72c2.41,1.71 3.62,3.53 3.62,6.53" fill="#f8981d" id="svg_3"/>
   <path d="m130.17,42.12c-2.99,-0.08 -5.31,0.22 -7.25,1.05c-0.56,0.22 -1.45,0.22 -1.53,0.93c0.3,0.3 0.34,0.78 0.6,1.2c0.45,0.74 1.23,1.75 1.94,2.27c0.79,0.6 1.57,1.2 2.4,1.72c1.45,0.9 3.1,1.42 4.51,2.32c0.83,0.52 1.65,1.19 2.47,1.75c0.41,0.3 0.67,0.79 1.2,0.97l0,-0.11c-0.27,-0.34 -0.34,-0.82 -0.6,-1.2l-1.12,-1.08c-1.09,-1.45 -2.43,-2.72 -3.89,-3.77c-1.19,-0.82 -3.81,-1.94 -4.29,-3.32l-0.08,-0.08c0.82,-0.07 1.8,-0.37 2.58,-0.6c1.27,-0.34 2.43,-0.26 3.73,-0.59c0.6,-0.15 1.2,-0.34 1.8,-0.53l0,-0.33c-0.68,-0.68 -1.16,-1.57 -1.87,-2.21c-1.9,-1.64 -4,-3.25 -6.16,-4.59c-1.16,-0.75 -2.66,-1.23 -3.89,-1.87c-0.45,-0.23 -1.2,-0.34 -1.46,-0.71c-0.67,-0.82 -1.04,-1.9 -1.53,-2.88c-1.08,-2.05 -2.13,-4.33 -3.06,-6.5c-0.68,-1.46 -1.09,-2.91 -1.91,-4.26c-3.85,-6.35 -8.03,-10.19 -14.45,-13.97c-1.39,-0.78 -3.03,-1.12 -4.78,-1.53l-2.81,-0.15c-0.59,-0.26 -1.19,-0.97 -1.72,-1.31c-2.13,-1.34 -7.62,-4.25 -9.18,-0.41c-1.01,2.43 1.49,4.82 2.35,6.06c0.63,0.85 1.46,1.83 1.9,2.8c0.26,0.63 0.34,1.31 0.6,1.98c0.6,1.64 1.16,3.47 1.94,5c0.41,0.79 0.86,1.61 1.39,2.32c0.3,0.41 0.82,0.59 0.93,1.27c-0.52,0.74 -0.56,1.86 -0.86,2.8c-1.34,4.22 -0.82,9.45 1.09,12.55c0.59,0.93 2.01,2.99 3.92,2.2c1.68,-0.67 1.31,-2.8 1.79,-4.67c0.11,-0.45 0.04,-0.74 0.26,-1.04l0,0.07c0.52,1.05 1.05,2.06 1.53,3.1c1.16,1.83 3.18,3.74 4.86,5.01c0.9,0.67 1.61,1.83 2.73,2.24l0,-0.11l-0.08,0c-0.22,-0.33 -0.56,-0.49 -0.85,-0.75c-0.68,-0.67 -1.42,-1.49 -1.95,-2.24c-1.56,-2.09 -2.95,-4.41 -4.18,-6.8c-0.6,-1.16 -1.12,-2.43 -1.61,-3.58c-0.22,-0.45 -0.22,-1.12 -0.6,-1.35c-0.56,0.82 -1.38,1.53 -1.79,2.54c-0.71,1.61 -0.78,3.59 -1.05,5.64l-0.14,0.08c-1.19,-0.3 -1.61,-1.53 -2.06,-2.58c-1.12,-2.65 -1.31,-6.91 -0.34,-9.97c0.26,-0.79 1.39,-3.25 0.94,-4c-0.22,-0.71 -0.97,-1.12 -1.38,-1.68c-0.48,-0.71 -1.01,-1.61 -1.35,-2.39c-0.89,-2.1 -1.35,-4.41 -2.31,-6.5c-0.45,-0.98 -1.23,-1.98 -1.87,-2.88c-0.71,-1.01 -1.49,-1.72 -2.06,-2.91c-0.18,-0.42 -0.44,-1.09 -0.14,-1.53c0.07,-0.3 0.22,-0.42 0.52,-0.49c0.48,-0.41 1.87,0.11 2.35,0.33c1.39,0.56 2.54,1.09 3.7,1.87c0.52,0.38 1.08,1.09 1.75,1.27l0.79,0c1.19,0.26 2.54,0.08 3.66,0.41c1.98,0.64 3.77,1.57 5.38,2.58c4.89,3.1 8.93,7.51 11.65,12.78c0.45,0.86 0.64,1.64 1.05,2.54c0.79,1.83 1.76,3.7 2.54,5.49c0.78,1.75 1.53,3.55 2.65,5c0.56,0.79 2.81,1.2 3.82,1.61c0.74,0.34 1.9,0.63 2.57,1.04c1.27,0.79 2.54,1.69 3.73,2.55c0.6,0.45 2.47,1.38 2.58,2.13m-38.11,-32.47a5.82,5.82 0 0 0 -1.53,0.19l0,0.08l0.08,0c0.3,0.59 0.82,1.01 1.19,1.53c0.31,0.6 0.57,1.19 0.86,1.79l0.07,-0.07c0.53,-0.38 0.79,-0.97 0.79,-1.87c-0.22,-0.27 -0.26,-0.52 -0.45,-0.79c-0.22,-0.37 -0.7,-0.56 -1.01,-0.86" fill="#5d87a1" id="svg_4"/>
   <path d="m133.73,83.39l0.77,0l0,-3.79l-1.16,0l-0.95,2.59l-1.03,-2.59l-1.11,0l0,3.79l0.73,0l0,-2.88l0.04,0l1.08,2.88l0.55,0l1.08,-2.88l0,2.88zm-6.24,0l0.82,0l0,-3.15l1.07,0l0,-0.64l-3,0l0,0.64l1.11,0l0,3.15z" fill="#f8981d" id="svg_5"/>
  </g>
 </g>

</svg>