<?xml version="1.0"?>
<svg viewBox="0 0 691 364" xmlns="http://www.w3.org/2000/svg" xmlns:svg="http://www.w3.org/2000/svg" version="1.1" xml:space="preserve">
 <title id="title3510">Official PHP Logo</title>
 <metadata id="metadata3436">image/svg+xmlOfficial PHP LogoColin ViebrockCopyright Colin Viebrock 1997 - All rights reserved.1997</metadata>
 <defs id="defs3434">
  <clipPath clipPathUnits="userSpaceOnUse" id="clipPath3444">
   <path d="m3.44,169.84c0,-80.32 123.79,-145.44 276.48,-145.44l0,0c152.69,0 276.48,65.12 276.48,145.44l0,0c0,80.32 -123.79,145.44 -276.48,145.44l0,0c-152.69,0 -276.48,-65.12 -276.48,-145.44" id="path3446"/>
  </clipPath>
  <clipPath clipPathUnits="userSpaceOnUse" id="clipPath3468">
   <path d="m-8.08,331.84l576,0l0,-324l-576,0l0,324z" id="path3470"/>
  </clipPath>
  <clipPath clipPathUnits="userSpaceOnUse" id="clipPath3480">
   <path d="m-8.08,331.84l576,0l0,-324l-576,0l0,324z" id="path3482"/>
  </clipPath>
  <radialGradient cx="0" cy="0" fx="0" fy="0" gradientTransform="matrix(363.05789,0,0,-363.05789,177.52002,256.30713)" gradientUnits="userSpaceOnUse" id="radialGradient3452" r="1" spreadMethod="pad">
   <stop id="stop3454" offset="0" stop-color="#aeb2d5"/>
   <stop id="stop3456" offset="0.3" stop-color="#aeb2d5"/>
   <stop id="stop3458" offset="0.75" stop-color="#484c89"/>
   <stop id="stop3460" offset="1" stop-color="#484c89"/>
  </radialGradient>
 </defs>
 <g class="layer">
  <title>Layer 1</title>
  <g id="g3438" transform="matrix(1.25, 0, 0, -1.25, -4.4, 394.299)">
   <g id="g3440">
    <g clip-path="url(#clipPath3444)" id="g3442">
     <g id="g3448">
      <g id="g3450">
       <path d="m11.52,162c0,-80.32 123.79,-145.44 276.48,-145.44l0,0c152.69,0 276.48,65.12 276.48,145.44l0,0c0,80.32 -123.79,145.44 -276.48,145.44l0,0c-152.69,0 -276.48,-65.12 -276.48,-145.44" fill="url(#radialGradient3452)" id="path3462" transform="translate(-175.44) translate(0, -164.16) translate(-57.12, 10.32) translate(73.84, 38.24) translate(52.72, 49.6) translate(57.84, 34.88) translate(48.08, 30.96) translate(0, 7.99897) translate(-8)"/>
      </g>
     </g>
    </g>
   </g>
   <g id="g3464">
    <g clip-path="url(#clipPath3468)" id="g3466">
     <g id="g3472" transform="translate(288, 27.3594)">
      <path d="m-8.08,7.84c146.73,0 265.68,60.28 265.68,134.64c0,74.36 -118.95,134.64 -265.68,134.64c-146.73,0 -265.68,-60.28 -265.68,-134.64c0,-74.36 118.95,-134.64 265.68,-134.64" fill="#777bb3" fill-rule="nonzero" id="path3474"/>
     </g>
    </g>
   </g>
   <g id="g3476">
    <g clip-path="url(#clipPath3480)" id="g3478">
     <g id="g3484" transform="translate(161.734, 145.307)">
      <path d="m-8.08,7.84c12.06,0 21.07,2.23 26.77,6.61c5.64,4.34 9.53,11.86 11.57,22.35c1.91,9.81 1.18,16.66 -2.15,20.35c-3.41,3.78 -10.77,5.69 -21.89,5.69l-19.28,0l-10.69,-55l15.67,0zm-63.06,-67.75c-0.9,0 -1.75,0.4 -2.32,1.09c-0.57,0.69 -0.8,1.6 -0.63,2.48l28.33,145.75c0.27,1.41 1.51,2.43 2.95,2.43l61.05,0c19.19,0 33.47,-5.21 42.45,-15.49c9.02,-10.33 11.81,-24.77 8.28,-42.92c-1.44,-7.39 -3.91,-14.26 -7.34,-20.41c-3.44,-6.15 -7.98,-11.85 -13.51,-16.93c-6.62,-6.19 -14.11,-10.68 -22.24,-13.32c-8,-2.61 -18.28,-3.93 -30.55,-3.93l-24.72,0l-7.06,-36.32c-0.27,-1.41 -1.51,-2.43 -2.94,-2.43l-31.75,0z" fill="#000000" fill-rule="nonzero" id="path3486"/>
     </g>
     <g id="g3488" transform="translate(159.224, 197.307)">
      <path d="m-8.08,7.84l16.81,0c13.42,0 18.08,-2.95 19.67,-4.7c2.62,-2.91 3.12,-9.06 1.43,-17.77c-1.9,-9.75 -5.42,-16.66 -10.46,-20.54c-5.16,-3.98 -13.55,-5.99 -24.94,-5.99l-12.03,0l9.52,49zm28.83,35l-61.05,0c-2.88,0 -5.35,-2.04 -5.89,-4.86l-28.33,-145.75c-0.34,-1.76 0.12,-3.57 1.26,-4.96c1.14,-1.38 2.84,-2.18 4.63,-2.18l31.75,0c2.87,0 5.34,2.04 5.89,4.86l6.59,33.89l22.25,0c12.58,0 23.17,1.37 31.47,4.08c8.54,2.77 16.4,7.48 23.36,13.98c5.75,5.29 10.49,11.23 14.08,17.66c3.59,6.42 6.17,13.59 7.67,21.3c3.71,19.1 0.69,34.4 -8.97,45.47c-9.57,10.95 -24.62,16.51 -44.71,16.51m-45.63,-90l19.31,0c12.8,0 22.34,2.41 28.6,7.23c6.27,4.83 10.49,12.88 12.69,24.16c2.1,10.83 1.14,18.48 -2.87,22.93c-4.02,4.45 -12.06,6.68 -24.12,6.68l-21.76,0l-11.85,-61m45.63,84c18.37,0 31.77,-4.82 40.19,-14.46c8.42,-9.64 10.96,-23.1 7.6,-40.38c-1.39,-7.11 -3.73,-13.62 -7.02,-19.51c-3.3,-5.9 -7.6,-11.3 -12.92,-16.19c-6.34,-5.93 -13.38,-10.16 -21.13,-12.68c-7.75,-2.52 -17.62,-3.78 -29.62,-3.78l-27.2,0l-7.53,-38.75l-31.75,0l28.33,145.75l61.05,0" fill="#ffffff" fill-rule="nonzero" id="path3490"/>
     </g>
     <g id="g3492" transform="translate(311.583, 116.307)">
      <path d="m-8.08,7.84c-0.9,0 -1.75,0.4 -2.31,1.09c-0.58,0.69 -0.81,1.6 -0.64,2.48l12.54,64.49c1.19,6.13 0.89,10.54 -0.83,12.4c-1.06,1.13 -4.23,3.04 -13.61,3.04l-22.7,0l-15.75,-81.07c-0.28,-1.41 -1.51,-2.43 -2.95,-2.43l-31.5,0c-0.9,0 -1.75,0.4 -2.31,1.09c-0.57,0.69 -0.81,1.6 -0.63,2.48l28.32,145.75c0.28,1.41 1.51,2.43 2.95,2.43l31.5,0c0.89,0 1.74,-0.4 2.31,-1.09c0.57,-0.69 0.8,-1.6 0.63,-2.48l-6.83,-35.18l24.42,0c18.6,0 31.22,-3.28 38.57,-10.03c7.49,-6.88 9.82,-17.89 6.95,-32.72l-13.18,-67.82c-0.28,-1.41 -1.51,-2.43 -2.95,-2.43l-32,0z" fill="#000000" fill-rule="nonzero" id="path3494"/>
     </g>
     <g id="g3496" transform="translate(293.661, 271.057)">
      <path d="m-8.08,7.84l-31.5,0c-2.87,0 -5.34,-2.04 -5.89,-4.86l-28.33,-145.75c-0.34,-1.75 0.12,-3.57 1.26,-4.96c1.14,-1.38 2.84,-2.18 4.63,-2.18l31.5,0c2.87,0 5.34,2.04 5.89,4.85l15.29,78.65l20.22,0c9.37,0 11.33,-2 11.41,-2.09c0.57,-0.61 1.32,-3.44 0.08,-9.78l-12.53,-64.49c-0.34,-1.76 0.12,-3.57 1.26,-4.96c1.14,-1.38 2.84,-2.18 4.63,-2.18l32,0c2.87,0 5.34,2.04 5.89,4.85l13.18,67.83c3.09,15.92 0.45,27.86 -7.86,35.5c-7.93,7.28 -21.21,10.82 -40.6,10.82l-20.78,0l6.14,31.6c0.34,1.76 -0.12,3.58 -1.26,4.97c-1.14,1.38 -2.84,2.18 -4.63,2.18m0,-6l-7.53,-38.75l28.06,0c17.66,0 29.84,-3.08 36.54,-9.24c6.7,-6.16 8.71,-16.14 6.03,-29.94l-13.18,-67.82l-32,0l12.53,64.49c1.43,7.33 0.91,12.34 -1.57,15.01c-2.48,2.66 -7.75,4 -15.81,4l-25.17,0l-16.23,-83.5l-31.5,0l28.33,145.75l31.5,0" fill="#ffffff" fill-rule="nonzero" id="path3498"/>
     </g>
     <g id="g3500" transform="translate(409.55, 145.307)">
      <path d="m-8.08,7.84c12.06,0 21.07,2.23 26.77,6.61c5.64,4.34 9.53,11.86 11.57,22.35c1.91,9.81 1.18,16.66 -2.15,20.35c-3.41,3.78 -10.77,5.69 -21.89,5.69l-19.28,0l-10.69,-55l15.67,0zm-63.06,-67.75c-0.9,0 -1.75,0.4 -2.32,1.09c-0.57,0.69 -0.8,1.6 -0.63,2.48l28.33,145.75c0.28,1.41 1.51,2.43 2.95,2.43l61.05,0c19.19,0 33.47,-5.21 42.45,-15.49c9.02,-10.33 11.81,-24.77 8.28,-42.92c-1.44,-7.39 -3.91,-14.26 -7.34,-20.41c-3.44,-6.15 -7.98,-11.85 -13.51,-16.93c-6.62,-6.19 -14.11,-10.68 -22.24,-13.32c-8,-2.61 -18.28,-3.93 -30.55,-3.93l-24.72,0l-7.06,-36.32c-0.27,-1.41 -1.51,-2.43 -2.94,-2.43l-31.75,0z" fill="#000000" fill-rule="nonzero" id="path3502"/>
     </g>
     <g id="g3504" transform="translate(407.039, 197.307)">
      <path d="m-8.08,7.84l16.81,0c13.42,0 18.08,-2.95 19.67,-4.7c2.62,-2.91 3.12,-9.06 1.43,-17.77c-1.9,-9.75 -5.42,-16.66 -10.46,-20.54c-5.16,-3.98 -13.55,-5.99 -24.94,-5.99l-12.03,0l9.52,49zm28.83,35l-61.05,0c-2.87,0 -5.34,-2.04 -5.89,-4.86l-28.33,-145.75c-0.34,-1.76 0.12,-3.57 1.26,-4.96c1.14,-1.38 2.84,-2.18 4.63,-2.18l31.75,0c2.87,0 5.34,2.04 5.89,4.86l6.59,33.89l22.25,0c12.58,0 23.17,1.37 31.47,4.08c8.55,2.77 16.41,7.48 23.36,13.98c5.75,5.29 10.49,11.23 14.08,17.66c3.59,6.43 6.17,13.59 7.67,21.3c3.71,19.11 0.69,34.4 -8.97,45.47c-9.57,10.95 -24.62,16.51 -44.71,16.51m-45.63,-90l19.31,0c12.8,0 22.34,2.41 28.6,7.23c6.27,4.83 10.49,12.88 12.69,24.16c2.1,10.83 1.15,18.48 -2.87,22.93c-4.02,4.45 -12.06,6.68 -24.12,6.68l-21.76,0l-11.85,-61m45.63,84c18.37,0 31.77,-4.82 40.19,-14.46c8.42,-9.64 10.96,-23.1 7.6,-40.38c-1.39,-7.11 -3.73,-13.62 -7.02,-19.51c-3.3,-5.9 -7.6,-11.3 -12.92,-16.19c-6.34,-5.93 -13.38,-10.16 -21.13,-12.68c-7.75,-2.52 -17.62,-3.78 -29.62,-3.78l-27.2,0l-7.53,-38.75l-31.75,0l28.33,145.75l61.05,0" fill="#ffffff" fill-rule="nonzero" id="path3506"/>
     </g>
    </g>
   </g>
  </g>
 </g>
</svg>