<?xml version="1.0"?>
<svg viewBox="0 0 490 145" xmlns="http://www.w3.org/2000/svg" xmlns:svg="http://www.w3.org/2000/svg" xmlns:xlink="http://www.w3.org/1999/xlink" version="1.0">
 <metadata id="metadata2193">image/svg+xml</metadata>
 <defs id="defs4">
  <linearGradient id="linearGradient2795">
   <stop id="stop2797" offset="0" stop-color="#b8b8b8" stop-opacity="0.5"/>
   <stop id="stop2799" offset="1" stop-color="#7f7f7f" stop-opacity="0"/>
  </linearGradient>
  <linearGradient id="linearGradient4671">
   <stop id="stop4673" offset="0" stop-color="#ffd43b"/>
   <stop id="stop4675" offset="1" stop-color="#ffe873"/>
  </linearGradient>
  <linearGradient id="linearGradient4689">
   <stop id="stop4691" offset="0" stop-color="#5a9fd4"/>
   <stop id="stop4693" offset="1" stop-color="#306998"/>
  </linearGradient>
  <linearGradient id="linearGradient1475" x1="0.5" x2="0.23" xlink:href="#linearGradient4671" y1="0.82" y2="0.45"/>
  <linearGradient id="linearGradient1478" x1="0" x2="0.75" xlink:href="#linearGradient4689" y1="0" y2="0.64"/>
  <radialGradient cx="61.52" cy="132.29" fx="61.52" fy="132.29" gradientTransform="matrix(2.382716e-8,-0.296405,1.43676,4.683673e-7,-128.544,150.5202)" gradientUnits="userSpaceOnUse" id="radialGradient1480" r="29.04" xlink:href="#linearGradient2795"/>
 </defs>
 <g class="layer">
  <title>Layer 1</title>
  <g id="g2303">
   <path d="m184.61,61.93c0,-14.56 -4.15,-22.04 -12.45,-22.45c-3.31,-0.15 -6.53,0.37 -9.67,1.59c-2.51,0.9 -4.19,1.78 -5.08,2.68l0,34.76c5.31,3.33 10.03,4.88 14.14,4.64c8.71,-0.58 13.06,-7.64 13.06,-21.22zm10.25,0.6c0,7.4 -1.74,13.54 -5.23,18.43c-3.89,5.52 -9.28,8.37 -16.17,8.52c-5.19,0.17 -10.54,-1.46 -16.05,-4.87l0,31.59l-8.91,-3.18l0,-70.12c1.46,-1.79 3.34,-3.33 5.62,-4.64c5.31,-3.09 11.75,-4.68 19.33,-4.75l0.13,0.12c6.93,-0.08 12.27,2.76 16.02,8.53c3.5,5.29 5.26,12.08 5.26,20.37z" fill="#646464" id="path46"/>
   <path d="m249.3,83.27c0,9.92 -0.99,16.79 -2.98,20.61c-2,3.82 -5.8,6.87 -11.41,9.14c-4.55,1.8 -9.48,2.77 -14.76,2.94l-1.47,-5.62c5.37,-0.73 9.15,-1.46 11.35,-2.19c4.31,-1.46 7.28,-3.7 8.9,-6.71c1.31,-2.44 1.95,-7.11 1.95,-14.02l0,-2.32c-6.09,2.77 -12.47,4.14 -19.15,4.14c-4.39,0 -8.26,-1.37 -11.59,-4.14c-3.74,-3.01 -5.61,-6.83 -5.61,-11.46l0,-37.08l8.91,-3.05l0,37.32c0,3.99 1.28,7.06 3.86,9.21c2.57,2.15 5.9,3.19 9.99,3.11c4.08,-0.09 8.46,-1.67 13.11,-4.76l0,-43.54l8.9,0l0,48.42z" fill="#646464" id="path48"/>
   <path d="m284.08,89c-1.06,0.08 -2.03,0.12 -2.93,0.12c-5.04,0 -8.97,-1.2 -11.78,-3.6c-2.79,-2.41 -4.2,-5.73 -4.2,-9.97l0,-35.09l-6.1,0l0,-5.61l6.1,0l0,-14.88l8.9,-3.17l0,18.05l10.01,0l0,5.61l-10.01,0l0,34.84c0,3.35 0.9,5.71 2.69,7.1c1.54,1.14 3.99,1.79 7.32,1.96l0,4.64z" fill="#646464" id="path50"/>
   <path d="m338.02,88.27l-8.91,0l0,-34.39c0,-3.5 -0.81,-6.51 -2.44,-9.03c-1.88,-2.84 -4.5,-4.27 -7.85,-4.27c-4.08,0 -9.19,2.16 -15.32,6.47l0,41.22l-8.91,0l0,-82.2l8.91,-2.81l0,37.44c5.69,-4.14 11.91,-6.22 18.66,-6.22c4.72,0 8.54,1.59 11.47,4.76c2.93,3.17 4.39,7.11 4.39,11.83l0,37.2l0,0z" fill="#646464" id="path52"/>
   <path d="m385.37,60.53c0,-5.6 -1.06,-10.22 -3.17,-13.87c-2.52,-4.46 -6.43,-6.81 -11.71,-7.05c-9.77,0.56 -14.64,7.56 -14.64,20.97c0,6.15 1.01,11.29 3.06,15.41c2.61,5.26 6.53,7.85 11.76,7.76c9.8,-0.07 14.7,-7.81 14.7,-23.22zm9.76,0.05c0,7.97 -2.04,14.6 -6.1,19.89c-4.47,5.92 -10.65,8.9 -18.54,8.9c-7.82,0 -13.91,-2.98 -18.3,-8.9c-3.99,-5.29 -5.98,-11.92 -5.98,-19.89c0,-7.48 2.15,-13.78 6.46,-18.91c4.55,-5.43 10.54,-8.16 17.94,-8.16c7.4,0 13.42,2.73 18.06,8.16c4.31,5.13 6.46,11.43 6.46,18.91z" fill="#646464" id="path54"/>
   <path d="m446.21,88.27l-8.91,0l0,-36.34c0,-3.99 -1.2,-7.1 -3.6,-9.34c-2.4,-2.23 -5.59,-3.31 -9.58,-3.23c-4.23,0.08 -8.26,1.47 -12.08,4.15l0,44.76l-8.91,0l0,-45.86c5.13,-3.74 9.85,-6.17 14.16,-7.31c4.06,-1.07 7.65,-1.59 10.74,-1.59c2.11,0 4.1,0.2 5.97,0.61c3.5,0.81 6.35,2.31 8.54,4.51c2.45,2.44 3.67,5.36 3.67,8.79l0,40.85z" fill="#646464" id="path56"/>
   <path d="m60.51,6.4c-4.58,0.02 -8.96,0.41 -12.81,1.09c-11.35,2.01 -13.41,6.2 -13.41,13.94l0,10.22l26.81,0l0,3.4l-26.81,0l-10.06,0c-7.79,0 -14.62,4.69 -16.75,13.6c-2.46,10.21 -2.57,16.58 0,27.25c1.9,7.94 6.46,13.59 14.25,13.59l9.22,0l0,-12.25c0,-8.85 7.65,-16.65 16.75,-16.65l26.78,0c7.45,0 13.41,-6.14 13.41,-13.63l0,-25.53c0,-7.27 -6.13,-12.73 -13.41,-13.94c-4.61,-0.77 -9.39,-1.11 -13.97,-1.09zm-14.5,8.22c2.77,0 5.03,2.3 5.03,5.12c0,2.82 -2.26,5.1 -5.03,5.1c-2.78,0 -5.03,-2.28 -5.03,-5.1c0,-2.82 2.25,-5.12 5.03,-5.12z" fill="url(#linearGradient1478)" id="path1948"/>
   <path d="m91.23,35.05l0,11.91c0,9.23 -7.83,17 -16.75,17l-26.78,0c-7.34,0 -13.41,6.28 -13.41,13.63l0,25.53c0,7.26 6.32,11.54 13.41,13.62c8.48,2.5 16.62,2.95 26.78,0c6.75,-1.95 13.41,-5.89 13.41,-13.62l0,-10.22l-26.79,0l0,-3.41l26.79,0l13.4,0c7.79,0 10.7,-5.43 13.41,-13.59c2.8,-8.4 2.68,-16.48 0,-27.25c-1.93,-7.76 -5.61,-13.6 -13.41,-13.6l-10.06,0zm-15.06,64.66c2.78,0 5.03,2.28 5.03,5.09c0,2.83 -2.25,5.13 -5.03,5.13c-2.77,0 -5.03,-2.3 -5.03,-5.13c0,-2.81 2.26,-5.09 5.03,-5.09z" fill="url(#linearGradient1475)" id="path1950"/>
   <path d="m463.55,26.91l1.57,0l0,-9.8l3.7,0l0,-1.16l-8.97,0l0,1.16l3.7,0l0,9.8m6.65,0l1.34,0l0,-8.95l2.89,8.95l1.49,0l3.02,-8.92l0,8.92l1.45,0l0,-10.96l-1.92,0l-3.3,9.39l-2.82,-9.39l-2.15,0l0,10.96" fill="#646464" id="text3004" stroke-width="1px"/>
   <path d="m110.47,132.29a48.95,8.61 0 1 1 -97.9,0a48.95,8.61 0 1 1 97.9,0z" fill="url(#radialGradient1480)" fill-rule="nonzero" id="path1894" opacity="0.44" stroke-miterlimit="4" stroke-width="20" transform="translate(2.00824) translate(0, 0.33436) matrix(0.73406, 0, 0, 0.809524, 16.2496, 27.0093)"/>
  </g>
 </g>
</svg>