<?xml version="1.0"?>
<svg viewBox="0 0 287 98" xmlns="http://www.w3.org/2000/svg" xmlns:svg="http://www.w3.org/2000/svg" enable-background="new 0 0 375.56 185.88" version="1.1" xml:space="preserve">
 <style type="text/css">.st0{display:none;}
	.st1{display:inline;}
	.st2{fill:#ED1C24;stroke:#EA1F27;stroke-width:0.3212;stroke-miterlimit:10;stroke-dasharray:2.1416;}
	.st3{display:inline;fill:#ED1C24;stroke:#EA1F27;stroke-width:0.3212;stroke-miterlimit:10;stroke-dasharray:2.1416;}
	.st4{display:inline;fill:#ED1C24;stroke:#EA1F27;stroke-width:0.3;stroke-miterlimit:10;stroke-dasharray:2;}
	.st5{display:inline;fill:#ED1C24;stroke:#EA1F27;stroke-width:0.3;stroke-miterlimit:10;stroke-dasharray:1.9999;}
	.st6{fill:#ED1C24;}
	.st7{fill:none;stroke:#EA1F27;stroke-width:0.3;stroke-miterlimit:10;}
	.st8{fill:#EA1F27;}
	.st9{display:inline;fill:#ED1C24;}
	.st10{display:inline;opacity:0.15;fill:#ED1C24;}
	.st11{display:inline;fill:#ED1C24;stroke:#EA1F27;stroke-width:0.3207;stroke-miterlimit:10;stroke-dasharray:2.1379;}
	.st12{display:inline;fill:#ED1C24;stroke:#EA1F27;stroke-width:0.3207;stroke-miterlimit:10;stroke-dasharray:2.1378;}</style>

 <g class="layer">
  <title>Layer 1</title>
  <g id="Logo">
   <g id="svg_1">
    <path d="m135.84,53.48c0,4.55 -2.53,7.79 -7.86,7.79c-5.65,0 -7.99,-3.05 -7.99,-7.6l0,-27.8l-11.5,0l0,27.41c0,10.85 6.49,17.21 19.48,17.21c12.92,0 19.35,-6.49 19.35,-17.21l0,-27.4l-11.5,0l0,27.6l0.02,0z" id="svg_2"/>
    <path d="m173.39,35.43c-4.61,0 -7.79,1.95 -10.26,5.52l-0.2,0l0,-4.55l-10.2,0l0,33.25l10.59,0l0,-18.37c0,-4.09 2.34,-7.01 5.84,-7.01c3.44,0 5.2,2.4 5.2,5.91l0,19.48l10.59,0l0,-21.63c0,-7.4 -4.29,-12.6 -11.56,-12.6z" id="svg_3"/>
    <rect height="8.58" id="svg_4" width="10.59" x="190.39" y="23.22"/>
    <rect height="33.25" id="svg_5" width="10.59" x="190.39" y="36.4"/>
    <path d="m219.63,25.88l-10.33,0l0,10.52l-4.42,0l0,8.58l4.42,0l0,15.91c0,7.14 4.42,9.16 10.59,9.16c2.86,0 4.87,-0.26 5.78,-0.52l0,-7.73c-0.39,0 -1.43,0.07 -2.34,0.07c-2.27,0 -3.7,-0.65 -3.7,-3.25l0,-13.64l6.04,0l0,-8.58l-6.04,0l0,-10.52z" id="svg_6"/>
    <path d="m248.21,50.56c-1.04,3.25 -1.95,7.66 -1.95,7.66l-0.13,0c0,0 -1.04,-4.42 -2.08,-7.66l-4.48,-14.16l-11.17,0l9.81,25.59c1.36,3.51 2.01,5.46 2.01,6.88c0,2.27 -1.23,3.51 -4.35,3.51l-3.64,0l0,8.25l6.88,0c6.69,0 9.87,-2.73 12.53,-10.52l11.5,-33.71l-10.59,0l-4.34,14.16z" id="svg_7"/>
    <path d="m46.97,17.97l15.3,8.83c0.55,0.31 0.57,1.17 0,1.48c0,0 -18.18,10.5 -18.18,10.5c-0.55,0.32 -1.2,0.3 -1.71,0l-18.18,-10.5c-0.56,-0.3 -0.57,-1.18 0,-1.48l15.29,-8.83l0,-17.29l-39.04,22.54l0,45.08l0,-0.21l0,0.21l14.97,-8.64l0,-17.66c-0.01,-0.63 0.73,-1.08 1.28,-0.74l18.18,10.5c0.55,0.32 0.86,0.89 0.86,1.48l0,20.99c0.01,0.63 -0.73,1.08 -1.28,0.74l-15.3,-8.83l-14.97,8.64l39.04,22.54l39.04,-22.54l-14.97,-8.64l-15.3,8.83c-0.54,0.33 -1.3,-0.1 -1.28,-0.74c0,0 0,-20.99 0,-20.99c0,-0.63 0.35,-1.19 0.86,-1.48l18.18,-10.5c0.54,-0.33 1.3,0.09 1.28,0.74l0,17.66l14.97,8.64l0,-45.08l-39.04,-22.54l0,17.29z" id="svg_8"/>
    <path d="m285.9,41.57c-0.44,-1.03 -1.05,-1.93 -1.82,-2.7c-0.78,-0.78 -1.68,-1.38 -2.7,-1.82c-1.02,-0.44 -2.12,-0.66 -3.3,-0.66s-2.27,0.22 -3.3,0.66c-1.03,0.44 -1.93,1.04 -2.7,1.82s-1.38,1.68 -1.82,2.7c-0.44,1.03 -0.66,2.12 -0.66,3.3c0,1.17 0.22,2.27 0.66,3.3c0.44,1.03 1.04,1.93 1.82,2.7s1.68,1.38 2.7,1.82c1.03,0.44 2.12,0.66 3.3,0.66s2.27,-0.22 3.3,-0.66c1.03,-0.44 1.93,-1.04 2.7,-1.82c0.78,-0.78 1.38,-1.68 1.82,-2.7c0.44,-1.03 0.66,-2.12 0.66,-3.3c0,-1.17 -0.22,-2.27 -0.66,-3.3zm-2.25,6.54c-0.58,0.98 -1.36,1.75 -2.33,2.33c-0.98,0.58 -2.06,0.87 -3.25,0.87c-1.19,0 -2.27,-0.29 -3.24,-0.87c-0.97,-0.58 -1.75,-1.36 -2.33,-2.33c-0.58,-0.97 -0.87,-2.06 -0.87,-3.24c0,-1.19 0.29,-2.27 0.87,-3.24c0.58,-0.98 1.36,-1.75 2.33,-2.33c0.97,-0.58 2.06,-0.87 3.24,-0.87c1.19,0 2.27,0.29 3.25,0.87c0.97,0.58 1.75,1.36 2.33,2.33c0.58,0.97 0.87,2.06 0.87,3.24c0,1.19 -0.29,2.27 -0.87,3.24z" id="svg_9"/>
    <path d="m281.05,44.82c0.28,-0.4 0.42,-0.88 0.42,-1.46c0,-0.56 -0.13,-1.03 -0.4,-1.4c-0.26,-0.37 -0.59,-0.65 -0.96,-0.83c-0.37,-0.18 -0.72,-0.27 -1.04,-0.27l-3.96,0l0,7.82l1.72,0l0,-2.65l1.7,0l1.37,2.65l1.89,0l-1.61,-3.05c0.33,-0.19 0.63,-0.45 0.87,-0.81zm-1.88,-0.41c-0.27,0.23 -0.52,0.35 -0.76,0.35l-1.59,0l0,-2.63l1.63,0c0.21,0 0.44,0.08 0.72,0.26c0.27,0.17 0.41,0.5 0.41,0.97c0,0.47 -0.13,0.82 -0.41,1.05z" id="svg_10"/>
   </g>
  </g>
  <g class="st0" id="Guides">
   <g class="st1" id="svg_11">
    <line class="st2" id="svg_12" x1="286.56" x2="662.06" y1="116.16" y2="116.16"/>
   </g>
   <line class="st3" id="svg_13" x1="286.56" x2="661.93" y1="162.6" y2="162.6"/>
   <line class="st4" id="svg_14" x1="331.18" x2="331.18" y1="234.88" y2="49"/>
   <line class="st4" id="svg_15" x1="401.75" x2="401.75" y1="234.88" y2="49"/>
   <line class="st5" id="svg_16" x1="483.46" x2="483.46" y1="234.87" y2="49"/>
   <line class="st5" id="svg_17" x1="515.68" x2="515.68" y1="234.87" y2="49"/>
   <line class="st5" id="svg_18" x1="521.12" x2="521.12" y1="234.87" y2="49"/>
   <line class="st4" id="svg_19" x1="593.88" x2="593.88" y1="234.87" y2="49"/>
   <line class="st4" id="svg_20" x1="600.32" x2="600.32" y1="49" y2="234.87"/>
   <line class="st4" id="svg_21" x1="617.28" x2="617.28" y1="49" y2="234.87"/>
   <g class="st1" id="svg_22">
    <line class="st6" id="svg_23" x1="325.19" x2="325.19" y1="95.19" y2="187.56"/>
    <g id="svg_24">
     <line class="st7" id="svg_25" x1="325.19" x2="325.19" y1="95.34" y2="187.41"/>
     <g id="svg_26">
      <rect class="st8" height="0.3" id="svg_27" width="1.95" x="324.21" y="95.19"/>
     </g>
     <g id="svg_28">
      <rect class="st8" height="0.3" id="svg_29" width="1.95" x="324.21" y="187.26"/>
     </g>
    </g>
   </g>
   <path class="st9" d="m594.95,213.39l0.11,0c0.07,-0.01 0.13,-0.02 0.17,-0.05c0.04,-0.02 0.07,-0.06 0.09,-0.12l0.45,-1.64c0.01,-0.03 0.01,-0.05 0.02,-0.07c0,-0.02 0.01,-0.04 0.01,-0.05c0,-0.04 -0.01,-0.06 -0.04,-0.08c-0.03,-0.01 -0.06,-0.02 -0.12,-0.02l-0.16,0.01l0,-0.05l0.04,-0.01c0.03,0 0.11,-0.02 0.24,-0.05c0.13,-0.03 0.22,-0.04 0.28,-0.06l0.05,-0.01l0.03,0l0.02,0.01c0,0.01 0,0.01 0,0.02c0,0.01 0,0.01 0,0.02l-0.54,1.99c0,0.01 0,0.02 -0.01,0.03c0,0.01 0,0.02 0,0.03c0,0.04 0.02,0.07 0.06,0.08s0.11,0.02 0.23,0.02l0,0.05l-0.93,0l0,-0.05z" id="svg_30"/>
   <path class="st9" d="m597.26,211.26l0.16,0l-0.84,2.24l-0.16,0l0.84,-2.24z" id="svg_31"/>
   <path class="st9" d="m597.57,213.45c-0.1,-0.03 -0.15,-0.09 -0.15,-0.17c0,-0.04 0.01,-0.08 0.04,-0.1c0.03,-0.02 0.06,-0.04 0.09,-0.04c0.04,0 0.11,0.03 0.19,0.09c0.08,0.06 0.16,0.1 0.22,0.1c0.14,0 0.27,-0.07 0.39,-0.2c0.12,-0.13 0.18,-0.3 0.18,-0.49c0,-0.22 -0.08,-0.38 -0.25,-0.48c-0.09,-0.06 -0.26,-0.11 -0.48,-0.15l0,-0.05l0.35,-0.73l0.85,0l-0.08,0.24l-0.76,0l-0.14,0.29c0.24,0.04 0.43,0.12 0.56,0.25c0.13,0.13 0.19,0.3 0.19,0.52c0,0.24 -0.1,0.46 -0.29,0.66c-0.2,0.19 -0.44,0.29 -0.72,0.29c-0.07,-0.01 -0.13,-0.02 -0.19,-0.03z" id="svg_32"/>
   <path class="st9" d="m596.11,215.26c-0.1,0.11 -0.18,0.21 -0.25,0.3c-0.11,0.16 -0.2,0.35 -0.27,0.57c-0.06,0.19 -0.1,0.38 -0.13,0.55c-0.02,0.17 -0.04,0.32 -0.04,0.44c0,0.18 0.01,0.33 0.03,0.45c0.02,0.12 0.06,0.27 0.13,0.46l-0.06,0.02c-0.12,-0.2 -0.2,-0.4 -0.25,-0.6c-0.05,-0.2 -0.08,-0.4 -0.08,-0.6c0,-0.26 0.04,-0.5 0.13,-0.7c0.13,-0.3 0.38,-0.61 0.73,-0.93l0.06,0.04z" id="svg_33"/>
   <path class="st9" d="m596.12,217.88c0.02,-0.03 0.05,-0.04 0.09,-0.04c0.03,0 0.05,0.01 0.07,0.02c0.02,0.01 0.04,0.03 0.06,0.04l0.02,0.02c0.01,0.01 0.01,0.01 0.02,0.01s0.02,0 0.03,0c0.05,0 0.14,-0.07 0.26,-0.21s0.18,-0.24 0.18,-0.3c0,-0.06 -0.02,-0.18 -0.06,-0.36c-0.04,-0.18 -0.08,-0.33 -0.12,-0.47c-0.05,-0.19 -0.1,-0.33 -0.14,-0.39c-0.04,-0.07 -0.11,-0.1 -0.19,-0.1c-0.01,0 -0.02,0 -0.03,0s-0.04,0 -0.08,0.01l0,-0.05l0.44,-0.09l0.03,0c0.03,0 0.08,0.12 0.16,0.37c0.07,0.22 0.11,0.38 0.13,0.48l0.07,0.39c0.11,-0.19 0.2,-0.34 0.25,-0.44c0.1,-0.2 0.16,-0.34 0.16,-0.42c0,-0.02 0,-0.04 -0.01,-0.05c-0.01,-0.02 -0.02,-0.03 -0.05,-0.05l-0.03,-0.01c-0.02,-0.01 -0.04,-0.03 -0.06,-0.05c-0.02,-0.02 -0.04,-0.06 -0.04,-0.1c0,-0.03 0.01,-0.06 0.03,-0.08s0.05,-0.03 0.1,-0.03c0.05,0 0.1,0.02 0.13,0.05c0.03,0.03 0.05,0.09 0.05,0.16c0,0.12 -0.06,0.3 -0.19,0.56c-0.1,0.2 -0.21,0.38 -0.33,0.57c-0.15,0.23 -0.28,0.41 -0.39,0.53c-0.17,0.2 -0.31,0.29 -0.43,0.29c-0.04,0 -0.08,-0.01 -0.12,-0.04s-0.05,-0.06 -0.05,-0.11c0.01,-0.06 0.02,-0.09 0.04,-0.11z" id="svg_34"/>
   <path class="st9" d="m597.7,217.98c0.11,-0.12 0.2,-0.23 0.26,-0.31c0.1,-0.16 0.19,-0.34 0.25,-0.55c0.06,-0.18 0.1,-0.36 0.13,-0.53s0.04,-0.34 0.04,-0.49c0,-0.19 -0.02,-0.36 -0.05,-0.51c-0.03,-0.15 -0.07,-0.27 -0.11,-0.36l0.06,-0.02c0.1,0.17 0.18,0.35 0.24,0.56c0.06,0.21 0.09,0.42 0.09,0.63c0,0.24 -0.04,0.46 -0.11,0.64c-0.13,0.34 -0.38,0.67 -0.76,0.99l-0.04,-0.05z" id="svg_35"/>
   <path class="st9" d="m516.26,213.39l0.11,0c0.07,-0.01 0.13,-0.02 0.17,-0.05c0.04,-0.02 0.07,-0.06 0.09,-0.12l0.45,-1.64c0.01,-0.03 0.01,-0.05 0.02,-0.07c0,-0.02 0.01,-0.04 0.01,-0.05c0,-0.04 -0.01,-0.06 -0.04,-0.08c-0.03,-0.01 -0.06,-0.02 -0.12,-0.02l-0.16,0.01l0,-0.05l0.04,-0.01c0.03,0 0.11,-0.02 0.24,-0.05c0.13,-0.03 0.22,-0.04 0.28,-0.06l0.05,-0.01l0.03,0l0.02,0.01c0,0.01 0,0.01 0,0.02c0,0.01 0,0.01 0,0.02l-0.54,1.99c0,0.01 0,0.02 -0.01,0.03c0,0.01 0,0.02 0,0.03c0,0.04 0.02,0.07 0.06,0.08s0.11,0.02 0.23,0.02l0,0.05l-0.93,0l0,-0.05z" id="svg_36"/>
   <path class="st9" d="m518.58,211.26l0.16,0l-0.84,2.24l-0.16,0l0.84,-2.24z" id="svg_37"/>
   <path class="st9" d="m517.43,215.26c-0.1,0.11 -0.18,0.21 -0.25,0.3c-0.11,0.16 -0.2,0.35 -0.27,0.57c-0.06,0.19 -0.1,0.38 -0.13,0.55c-0.02,0.17 -0.04,0.32 -0.04,0.44c0,0.18 0.01,0.33 0.03,0.45c0.02,0.12 0.06,0.27 0.13,0.46l-0.06,0.02c-0.12,-0.2 -0.2,-0.4 -0.25,-0.6c-0.05,-0.2 -0.08,-0.4 -0.08,-0.6c0,-0.26 0.04,-0.5 0.13,-0.7c0.13,-0.3 0.38,-0.61 0.73,-0.93l0.06,0.04z" id="svg_38"/>
   <path class="st9" d="m517.43,217.88c0.02,-0.03 0.05,-0.04 0.09,-0.04c0.03,0 0.05,0.01 0.07,0.02c0.02,0.01 0.04,0.03 0.06,0.04l0.02,0.02c0.01,0.01 0.01,0.01 0.02,0.01s0.02,0 0.03,0c0.05,0 0.14,-0.07 0.26,-0.21s0.18,-0.24 0.18,-0.3c0,-0.06 -0.02,-0.18 -0.06,-0.36c-0.04,-0.18 -0.08,-0.33 -0.12,-0.47c-0.05,-0.19 -0.1,-0.33 -0.14,-0.39c-0.04,-0.07 -0.11,-0.1 -0.19,-0.1c-0.01,0 -0.02,0 -0.03,0s-0.04,0 -0.08,0.01l0,-0.05l0.44,-0.09l0.03,0c0.03,0 0.08,0.12 0.16,0.37c0.07,0.22 0.11,0.38 0.13,0.48l0.07,0.39c0.11,-0.19 0.2,-0.34 0.25,-0.44c0.1,-0.2 0.16,-0.34 0.16,-0.42c0,-0.02 0,-0.04 -0.01,-0.05c-0.01,-0.02 -0.02,-0.03 -0.05,-0.05l-0.03,-0.01c-0.02,-0.01 -0.04,-0.03 -0.06,-0.05c-0.02,-0.02 -0.04,-0.06 -0.04,-0.1c0,-0.03 0.01,-0.06 0.03,-0.08s0.05,-0.03 0.1,-0.03c0.05,0 0.1,0.02 0.13,0.05c0.03,0.03 0.05,0.09 0.05,0.16c0,0.12 -0.06,0.3 -0.19,0.56c-0.1,0.2 -0.21,0.38 -0.33,0.57c-0.15,0.23 -0.28,0.41 -0.39,0.53c-0.17,0.2 -0.31,0.29 -0.43,0.29c-0.04,0 -0.08,-0.01 -0.12,-0.04s-0.05,-0.06 -0.05,-0.11c0.01,-0.06 0.02,-0.09 0.04,-0.11z" id="svg_39"/>
   <path class="st9" d="m519.02,217.98c0.11,-0.12 0.2,-0.23 0.26,-0.31c0.1,-0.16 0.19,-0.34 0.25,-0.55c0.06,-0.18 0.1,-0.36 0.13,-0.53s0.04,-0.34 0.04,-0.49c0,-0.19 -0.02,-0.36 -0.05,-0.51c-0.03,-0.15 -0.07,-0.27 -0.11,-0.36l0.06,-0.02c0.1,0.17 0.18,0.35 0.24,0.56c0.06,0.21 0.09,0.42 0.09,0.63c0,0.24 -0.04,0.46 -0.11,0.64c-0.13,0.34 -0.38,0.67 -0.76,0.99l-0.04,-0.05z" id="svg_40"/>
   <path class="st9" d="m408.03,211.27c-0.1,0.11 -0.18,0.21 -0.25,0.3c-0.11,0.16 -0.2,0.35 -0.27,0.57c-0.06,0.19 -0.1,0.38 -0.13,0.55c-0.02,0.17 -0.04,0.32 -0.04,0.44c0,0.18 0.01,0.33 0.03,0.45c0.02,0.12 0.06,0.27 0.13,0.46l-0.06,0.02c-0.12,-0.2 -0.2,-0.4 -0.25,-0.6c-0.05,-0.2 -0.08,-0.4 -0.08,-0.6c0,-0.26 0.04,-0.5 0.13,-0.7c0.13,-0.3 0.38,-0.61 0.73,-0.93l0.06,0.04z" id="svg_41"/>
   <path class="st9" d="m408.03,213.24c0.03,-0.02 0.05,-0.03 0.08,-0.03c0.01,0 0.03,0 0.04,0.01c0.01,0 0.03,0.01 0.04,0.02l0.06,0.03c0.01,0 0.01,0.01 0.02,0.01s0.01,0 0.02,0c0.03,0 0.05,-0.01 0.06,-0.02s0.05,-0.06 0.11,-0.14c0.04,-0.05 0.13,-0.18 0.27,-0.39c0,-0.01 -0.01,-0.07 -0.04,-0.17c-0.03,-0.11 -0.05,-0.2 -0.07,-0.28s-0.04,-0.13 -0.06,-0.15c-0.02,-0.02 -0.05,-0.04 -0.09,-0.04c-0.01,0 -0.04,0 -0.09,0.02c-0.03,0.01 -0.06,0.01 -0.09,0.02l-0.01,-0.05l0.18,-0.06c0.05,-0.02 0.09,-0.03 0.13,-0.04c0.04,-0.01 0.07,-0.01 0.1,-0.01c0.05,0 0.08,0.01 0.1,0.04c0.04,0.04 0.06,0.13 0.09,0.26l0.03,0.18c0.1,-0.15 0.17,-0.25 0.23,-0.31c0.05,-0.05 0.09,-0.1 0.14,-0.12c0.04,-0.03 0.08,-0.04 0.12,-0.04c0.04,0 0.07,0.01 0.09,0.02c0.04,0.02 0.06,0.06 0.06,0.11c0,0.04 -0.01,0.07 -0.03,0.09s-0.05,0.03 -0.08,0.03c-0.01,0 -0.02,0 -0.03,0c-0.01,0 -0.02,-0.01 -0.03,-0.01l-0.04,-0.02c-0.01,-0.01 -0.02,-0.01 -0.03,-0.01c-0.01,0 -0.02,0 -0.02,0c-0.05,0 -0.12,0.06 -0.2,0.19s-0.13,0.2 -0.13,0.22c0,0.02 0.01,0.07 0.03,0.16c0.02,0.09 0.04,0.18 0.07,0.28c0.02,0.09 0.04,0.16 0.06,0.19c0.02,0.06 0.05,0.09 0.08,0.09c0.03,0 0.06,-0.02 0.09,-0.05s0.08,-0.09 0.14,-0.17l0.04,0.03c-0.05,0.08 -0.09,0.16 -0.14,0.22c-0.09,0.11 -0.18,0.17 -0.27,0.17c-0.05,0 -0.1,-0.03 -0.13,-0.08c-0.02,-0.03 -0.04,-0.08 -0.05,-0.15l-0.1,-0.4l-0.33,0.44c-0.07,0.08 -0.12,0.13 -0.15,0.15c-0.04,0.03 -0.08,0.04 -0.13,0.04c-0.07,0 -0.12,-0.02 -0.14,-0.07c-0.01,-0.02 -0.02,-0.05 -0.02,-0.08c-0.01,-0.08 0,-0.11 0.02,-0.13z" id="svg_42"/>
   <path class="st9" d="m409.62,213.99c0.11,-0.12 0.2,-0.23 0.26,-0.31c0.1,-0.16 0.19,-0.34 0.25,-0.55c0.06,-0.18 0.1,-0.36 0.13,-0.53s0.04,-0.34 0.04,-0.49c0,-0.19 -0.02,-0.36 -0.05,-0.51c-0.03,-0.15 -0.07,-0.27 -0.11,-0.36l0.06,-0.02c0.1,0.17 0.18,0.35 0.24,0.56c0.06,0.21 0.09,0.42 0.09,0.63c0,0.24 -0.04,0.46 -0.11,0.64c-0.13,0.34 -0.38,0.67 -0.76,0.99l-0.04,-0.05z" id="svg_43"/>
   <path class="st9" d="m424.76,213.39l0.11,0c0.07,-0.01 0.13,-0.02 0.17,-0.05c0.04,-0.02 0.07,-0.06 0.09,-0.12l0.45,-1.64c0.01,-0.03 0.01,-0.05 0.02,-0.07c0,-0.02 0.01,-0.04 0.01,-0.05c0,-0.04 -0.01,-0.06 -0.04,-0.08c-0.03,-0.01 -0.06,-0.02 -0.12,-0.02l-0.16,0.01l0,-0.05l0.04,-0.01c0.03,0 0.11,-0.02 0.24,-0.05c0.13,-0.03 0.22,-0.04 0.28,-0.06l0.05,-0.01l0.03,0l0.02,0.01c0,0.01 0,0.01 0,0.02c0,0.01 0,0.01 0,0.02l-0.54,1.99c0,0.01 0,0.02 -0.01,0.03c0,0.01 0,0.02 0,0.03c0,0.04 0.02,0.07 0.06,0.08s0.11,0.02 0.23,0.02l0,0.05l-0.93,0l0,-0.05z" id="svg_44"/>
   <path class="st9" d="m426.68,213.43c-0.04,-0.04 -0.05,-0.08 -0.05,-0.13c0,-0.05 0.02,-0.09 0.05,-0.13s0.08,-0.05 0.13,-0.05s0.09,0.02 0.13,0.05s0.05,0.08 0.05,0.13c0,0.05 -0.02,0.09 -0.05,0.13c-0.04,0.04 -0.08,0.05 -0.13,0.05s-0.1,-0.02 -0.13,-0.05z" id="svg_45"/>
   <path class="st9" d="m427.3,213.45c-0.1,-0.03 -0.15,-0.09 -0.15,-0.17c0,-0.04 0.01,-0.08 0.04,-0.1c0.03,-0.02 0.06,-0.04 0.09,-0.04c0.04,0 0.11,0.03 0.19,0.09c0.08,0.06 0.16,0.1 0.22,0.1c0.14,0 0.27,-0.07 0.39,-0.2c0.12,-0.13 0.18,-0.3 0.18,-0.49c0,-0.22 -0.08,-0.38 -0.25,-0.48c-0.09,-0.06 -0.26,-0.11 -0.48,-0.15l0,-0.05l0.35,-0.73l0.85,0l-0.08,0.24l-0.76,0l-0.14,0.29c0.24,0.04 0.43,0.12 0.56,0.25c0.13,0.13 0.19,0.3 0.19,0.52c0,0.24 -0.1,0.46 -0.29,0.66c-0.2,0.19 -0.44,0.29 -0.72,0.29c-0.07,-0.01 -0.14,-0.02 -0.19,-0.03z" id="svg_46"/>
   <path class="st9" d="m430.63,211.27c-0.1,0.11 -0.18,0.21 -0.25,0.3c-0.11,0.16 -0.2,0.35 -0.27,0.57c-0.06,0.19 -0.1,0.38 -0.13,0.55c-0.02,0.17 -0.04,0.32 -0.04,0.44c0,0.18 0.01,0.33 0.03,0.45c0.02,0.12 0.06,0.27 0.13,0.46l-0.06,0.02c-0.12,-0.2 -0.2,-0.4 -0.25,-0.6c-0.05,-0.2 -0.08,-0.4 -0.08,-0.6c0,-0.26 0.04,-0.5 0.13,-0.7c0.13,-0.3 0.38,-0.61 0.73,-0.93l0.06,0.04z" id="svg_47"/>
   <path class="st9" d="m430.64,213.24c0.03,-0.02 0.05,-0.03 0.08,-0.03c0.01,0 0.03,0 0.04,0.01c0.01,0 0.03,0.01 0.04,0.02l0.06,0.03c0.01,0 0.01,0.01 0.02,0.01s0.01,0 0.02,0c0.03,0 0.05,-0.01 0.06,-0.02c0.01,-0.01 0.05,-0.06 0.11,-0.14c0.04,-0.05 0.13,-0.18 0.27,-0.39c0,-0.01 -0.01,-0.07 -0.04,-0.17c-0.03,-0.11 -0.05,-0.2 -0.07,-0.28s-0.04,-0.13 -0.06,-0.15c-0.02,-0.02 -0.05,-0.04 -0.09,-0.04c-0.01,0 -0.04,0 -0.09,0.02c-0.03,0.01 -0.06,0.01 -0.09,0.02l-0.01,-0.05l0.18,-0.06c0.05,-0.02 0.09,-0.03 0.13,-0.04c0.04,-0.01 0.07,-0.01 0.1,-0.01c0.05,0 0.08,0.01 0.1,0.04c0.04,0.04 0.06,0.13 0.09,0.26l0.03,0.18c0.1,-0.15 0.17,-0.25 0.23,-0.31c0.05,-0.05 0.09,-0.1 0.14,-0.12c0.04,-0.03 0.08,-0.04 0.12,-0.04c0.04,0 0.07,0.01 0.09,0.02c0.04,0.02 0.06,0.06 0.06,0.11c0,0.04 -0.01,0.07 -0.03,0.09s-0.05,0.03 -0.08,0.03c-0.01,0 -0.02,0 -0.03,0c-0.01,0 -0.02,-0.01 -0.03,-0.01l-0.04,-0.02c-0.01,-0.01 -0.02,-0.01 -0.03,-0.01c-0.01,0 -0.02,0 -0.02,0c-0.05,0 -0.12,0.06 -0.2,0.19s-0.13,0.2 -0.13,0.22c0,0.02 0.01,0.07 0.03,0.16c0.02,0.09 0.04,0.18 0.07,0.28c0.02,0.09 0.04,0.16 0.06,0.19c0.02,0.06 0.05,0.09 0.08,0.09c0.03,0 0.06,-0.02 0.09,-0.05s0.08,-0.09 0.14,-0.17l0.04,0.03c-0.05,0.08 -0.09,0.16 -0.14,0.22c-0.09,0.11 -0.18,0.17 -0.27,0.17c-0.05,0 -0.1,-0.03 -0.13,-0.08c-0.02,-0.03 -0.04,-0.08 -0.05,-0.15l-0.1,-0.4l-0.33,0.44c-0.07,0.08 -0.12,0.13 -0.15,0.15c-0.04,0.03 -0.08,0.04 -0.13,0.04c-0.07,0 -0.12,-0.02 -0.14,-0.07c-0.01,-0.02 -0.02,-0.05 -0.02,-0.08c-0.02,-0.08 0,-0.11 0.02,-0.13z" id="svg_48"/>
   <path class="st9" d="m432.22,213.99c0.11,-0.12 0.2,-0.23 0.26,-0.31c0.1,-0.16 0.19,-0.34 0.25,-0.55c0.06,-0.18 0.1,-0.36 0.13,-0.53s0.04,-0.34 0.04,-0.49c0,-0.19 -0.02,-0.36 -0.05,-0.51c-0.03,-0.15 -0.07,-0.27 -0.11,-0.36l0.06,-0.02c0.1,0.17 0.18,0.35 0.24,0.56c0.06,0.21 0.09,0.42 0.09,0.63c0,0.24 -0.04,0.46 -0.11,0.64c-0.13,0.34 -0.38,0.67 -0.76,0.99l-0.04,-0.05z" id="svg_49"/>
   <path class="st9" d="m498.75,211.27c-0.1,0.11 -0.18,0.21 -0.25,0.3c-0.11,0.16 -0.2,0.35 -0.27,0.57c-0.06,0.19 -0.1,0.38 -0.13,0.55c-0.02,0.17 -0.04,0.32 -0.04,0.44c0,0.18 0.01,0.33 0.03,0.45c0.02,0.12 0.06,0.27 0.13,0.46l-0.06,0.02c-0.12,-0.2 -0.2,-0.4 -0.25,-0.6c-0.05,-0.2 -0.08,-0.4 -0.08,-0.6c0,-0.26 0.04,-0.5 0.13,-0.7c0.13,-0.3 0.38,-0.61 0.73,-0.93l0.06,0.04z" id="svg_50"/>
   <path class="st9" d="m498.76,213.89c0.02,-0.03 0.05,-0.04 0.09,-0.04c0.03,0 0.05,0.01 0.07,0.02c0.02,0.01 0.04,0.03 0.06,0.04l0.02,0.02c0.01,0.01 0.01,0.01 0.02,0.01s0.02,0 0.03,0c0.05,0 0.14,-0.07 0.26,-0.21s0.18,-0.24 0.18,-0.3c0,-0.06 -0.02,-0.18 -0.06,-0.36c-0.04,-0.18 -0.08,-0.33 -0.12,-0.47c-0.05,-0.19 -0.1,-0.33 -0.14,-0.39c-0.04,-0.07 -0.11,-0.1 -0.19,-0.1c-0.01,0 -0.02,0 -0.03,0s-0.04,0 -0.08,0.01l0,-0.05l0.44,-0.09l0.03,0c0.03,0 0.08,0.12 0.16,0.37c0.07,0.22 0.11,0.38 0.13,0.48l0.07,0.39c0.11,-0.19 0.2,-0.34 0.25,-0.44c0.1,-0.2 0.16,-0.34 0.16,-0.42c0,-0.02 0,-0.04 -0.01,-0.05c-0.01,-0.02 -0.02,-0.03 -0.05,-0.05l-0.03,-0.01c-0.02,-0.01 -0.04,-0.03 -0.06,-0.05c-0.02,-0.02 -0.04,-0.06 -0.04,-0.1c0,-0.03 0.01,-0.06 0.03,-0.08s0.05,-0.03 0.1,-0.03c0.05,0 0.1,0.02 0.13,0.05c0.03,0.03 0.05,0.09 0.05,0.16c0,0.12 -0.06,0.3 -0.19,0.56c-0.1,0.2 -0.21,0.38 -0.33,0.57c-0.15,0.23 -0.28,0.41 -0.39,0.53c-0.17,0.2 -0.31,0.29 -0.43,0.29c-0.04,0 -0.08,-0.01 -0.12,-0.04s-0.05,-0.06 -0.05,-0.11c0,-0.05 0.01,-0.08 0.04,-0.11z" id="svg_51"/>
   <path class="st9" d="m500.34,213.99c0.11,-0.12 0.2,-0.23 0.26,-0.31c0.1,-0.16 0.19,-0.34 0.25,-0.55c0.06,-0.18 0.1,-0.36 0.13,-0.53s0.04,-0.34 0.04,-0.49c0,-0.19 -0.02,-0.36 -0.05,-0.51c-0.03,-0.15 -0.07,-0.27 -0.11,-0.36l0.06,-0.02c0.1,0.17 0.18,0.35 0.24,0.56c0.06,0.21 0.09,0.42 0.09,0.63c0,0.24 -0.04,0.46 -0.11,0.64c-0.13,0.34 -0.38,0.67 -0.76,0.99l-0.04,-0.05z" id="svg_52"/>
   <path class="st9" d="m315.81,145.35c0.03,0.01 0.05,0.02 0.08,0.04l0.08,0.05c0.04,0.03 0.07,0.05 0.1,0.06c0.04,0.02 0.09,0.03 0.13,0.03c0.11,0 0.21,-0.05 0.29,-0.15c0.09,-0.1 0.13,-0.23 0.13,-0.39c0,-0.18 -0.05,-0.32 -0.14,-0.41c-0.1,-0.09 -0.23,-0.14 -0.41,-0.14c-0.01,0 -0.02,0 -0.02,0c-0.01,0 -0.02,0 -0.04,0l0,-0.05c0.29,-0.04 0.5,-0.11 0.62,-0.22c0.12,-0.11 0.18,-0.21 0.18,-0.32c0,-0.07 -0.02,-0.14 -0.06,-0.21c-0.04,-0.06 -0.12,-0.1 -0.24,-0.1c-0.07,0 -0.13,0.02 -0.2,0.05c-0.06,0.04 -0.12,0.09 -0.17,0.16l-0.05,-0.02c0.06,-0.12 0.14,-0.2 0.23,-0.26c0.09,-0.05 0.19,-0.08 0.3,-0.08c0.14,0 0.26,0.04 0.35,0.11s0.13,0.18 0.13,0.3c0,0.13 -0.05,0.23 -0.16,0.32c-0.07,0.06 -0.19,0.11 -0.36,0.18l0,0.01c0.08,0.04 0.14,0.08 0.19,0.13c0.08,0.09 0.12,0.22 0.12,0.38c0,0.22 -0.08,0.41 -0.26,0.58c-0.18,0.17 -0.4,0.26 -0.66,0.26c-0.09,0 -0.17,-0.01 -0.23,-0.03c-0.1,-0.03 -0.15,-0.09 -0.15,-0.18c0,-0.03 0.01,-0.06 0.03,-0.08c0.02,-0.02 0.06,-0.04 0.11,-0.04c0.03,0.01 0.05,0.01 0.08,0.02z" id="svg_53"/>
   <path class="st9" d="m318.24,143.46c-0.1,0.11 -0.18,0.21 -0.25,0.3c-0.11,0.16 -0.2,0.35 -0.27,0.57c-0.06,0.19 -0.1,0.38 -0.13,0.55c-0.01,0.18 -0.03,0.32 -0.03,0.44c0,0.18 0.01,0.33 0.03,0.45c0.02,0.12 0.06,0.27 0.13,0.46l-0.06,0.02c-0.12,-0.2 -0.2,-0.4 -0.25,-0.6c-0.05,-0.2 -0.08,-0.4 -0.08,-0.6c0,-0.26 0.04,-0.5 0.13,-0.7c0.13,-0.3 0.38,-0.61 0.73,-0.93l0.05,0.04z" id="svg_54"/>
   <path class="st9" d="m318.25,146.08c0.02,-0.03 0.05,-0.04 0.09,-0.04c0.03,0 0.05,0.01 0.07,0.02c0.02,0.01 0.04,0.03 0.06,0.04l0.02,0.02c0.01,0.01 0.01,0.01 0.02,0.01s0.02,0 0.03,0c0.05,0 0.14,-0.07 0.26,-0.21s0.18,-0.24 0.18,-0.3c0,-0.06 -0.02,-0.18 -0.06,-0.36c-0.04,-0.18 -0.08,-0.33 -0.12,-0.47c-0.05,-0.19 -0.1,-0.33 -0.14,-0.39c-0.04,-0.07 -0.11,-0.1 -0.19,-0.1c-0.01,0 -0.02,0 -0.03,0s-0.04,0 -0.08,0.01l0,-0.05l0.44,-0.09l0.03,0c0.03,0 0.08,0.12 0.16,0.37c0.07,0.22 0.11,0.38 0.13,0.48l0.07,0.39c0.11,-0.19 0.2,-0.34 0.25,-0.44c0.1,-0.2 0.16,-0.34 0.16,-0.42c0,-0.02 0,-0.04 -0.01,-0.05c-0.01,-0.02 -0.02,-0.03 -0.05,-0.05l-0.03,-0.01c-0.02,-0.01 -0.04,-0.03 -0.06,-0.05c-0.02,-0.02 -0.04,-0.06 -0.04,-0.1c0,-0.03 0.01,-0.06 0.03,-0.08s0.05,-0.03 0.1,-0.03c0.05,0 0.1,0.02 0.13,0.05c0.03,0.03 0.05,0.09 0.05,0.16c0,0.12 -0.06,0.3 -0.19,0.56c-0.1,0.2 -0.21,0.38 -0.33,0.57c-0.15,0.23 -0.28,0.41 -0.39,0.53c-0.17,0.2 -0.31,0.29 -0.43,0.29c-0.04,0 -0.08,-0.01 -0.12,-0.04s-0.05,-0.06 -0.05,-0.11c0.01,-0.05 0.02,-0.08 0.04,-0.11z" id="svg_55"/>
   <path class="st9" d="m319.83,146.18c0.11,-0.12 0.2,-0.23 0.26,-0.31c0.1,-0.16 0.19,-0.34 0.25,-0.55c0.06,-0.18 0.1,-0.36 0.13,-0.53s0.04,-0.34 0.04,-0.49c0,-0.19 -0.02,-0.36 -0.05,-0.51c-0.03,-0.15 -0.07,-0.27 -0.11,-0.36l0.06,-0.02c0.1,0.17 0.18,0.35 0.24,0.56c0.06,0.21 0.09,0.42 0.09,0.63c0,0.24 -0.04,0.46 -0.11,0.64c-0.13,0.34 -0.38,0.67 -0.76,0.99l-0.04,-0.05z" id="svg_56"/>
   <line class="st5" id="svg_57" x1="416.74" x2="416.74" y1="49" y2="234.88"/>
   <line class="st5" id="svg_58" x1="439.23" x2="439.23" y1="234.88" y2="49"/>
   <path class="st9" d="m619.7,226.2l0.27,0l0,0.97l1.17,0l0,-0.97l0.26,0l0,2.19l-0.26,0l0,-0.98l-1.17,0l0,0.98l-0.27,0l0,-2.19z" id="svg_59"/>
   <path class="st9" d="m621.81,227.58c0,-0.5 0.29,-0.85 0.74,-0.85c0.34,0 0.71,0.21 0.71,0.82l0,0.11l-1.19,0c0.01,0.35 0.22,0.54 0.51,0.54c0.2,0 0.35,-0.08 0.41,-0.26l0.24,0.07c-0.08,0.25 -0.32,0.41 -0.65,0.41c-0.48,0 -0.77,-0.34 -0.77,-0.84zm1.19,-0.15c0,-0.28 -0.18,-0.48 -0.45,-0.48c-0.29,0 -0.47,0.23 -0.49,0.48l0.94,0z" id="svg_60"/>
   <path class="st9" d="m623.59,226.3c0,-0.09 0.08,-0.17 0.18,-0.17c0.1,0 0.18,0.08 0.18,0.17s-0.08,0.17 -0.18,0.17c-0.1,0 -0.18,-0.08 -0.18,-0.17zm0.05,0.44l0.25,0l0,1.64l-0.25,0l0,-1.64z" id="svg_61"/>
   <path class="st9" d="m624.34,228.71l0.2,-0.14c0.07,0.09 0.17,0.25 0.47,0.25c0.27,0 0.46,-0.12 0.46,-0.4l0,-0.33l-0.02,0c-0.06,0.09 -0.16,0.28 -0.48,0.28c-0.4,0 -0.7,-0.29 -0.7,-0.8c0,-0.5 0.29,-0.83 0.7,-0.83c0.32,0 0.42,0.2 0.48,0.28l0.03,0l0,-0.26l0.24,0l0,1.69c0,0.42 -0.32,0.6 -0.71,0.6c-0.37,-0.02 -0.57,-0.17 -0.67,-0.34zm1.13,-1.16c0,-0.35 -0.16,-0.6 -0.47,-0.6c-0.32,0 -0.48,0.27 -0.48,0.6c0,0.34 0.16,0.58 0.48,0.58c0.31,0 0.47,-0.21 0.47,-0.58z" id="svg_62"/>
   <path class="st9" d="m626.43,228.39l-0.25,0l0,-2.19l0.25,0l0,0.8l0.02,0c0.08,-0.17 0.22,-0.28 0.48,-0.28c0.33,0 0.56,0.2 0.56,0.62l0,1.04l-0.25,0l0,-1.03c0,-0.26 -0.14,-0.41 -0.38,-0.41c-0.25,0 -0.43,0.16 -0.43,0.45l0,1z" id="svg_63"/>
   <path class="st9" d="m628.66,226.96l-0.35,0l0,0.96c0,0.21 0.11,0.25 0.22,0.25c0.06,0 0.09,-0.01 0.11,-0.01l0.05,0.23c-0.03,0.01 -0.09,0.03 -0.19,0.03c-0.21,0 -0.44,-0.14 -0.44,-0.42l0,-1.03l-0.25,0l0,-0.21l0.25,0l0,-0.39l0.25,0l0,0.39l0.35,0l0,0.2z" id="svg_64"/>
   <path class="st9" d="m629.81,227.57c0,-0.51 0.3,-0.85 0.74,-0.85s0.74,0.34 0.74,0.85c0,0.51 -0.3,0.85 -0.74,0.85s-0.74,-0.34 -0.74,-0.85zm1.23,0c0,-0.33 -0.15,-0.62 -0.49,-0.62c-0.34,0 -0.49,0.29 -0.49,0.62s0.15,0.62 0.49,0.62c0.34,0 0.49,-0.29 0.49,-0.62z" id="svg_65"/>
   <path class="st9" d="m632.4,226.96l-0.37,0l0,1.43l-0.25,0l0,-1.43l-0.26,0l0,-0.21l0.26,0l0,-0.23c0,-0.28 0.23,-0.42 0.46,-0.42c0.12,0 0.2,0.03 0.24,0.04l-0.07,0.22c-0.03,-0.01 -0.07,-0.03 -0.14,-0.03c-0.17,0 -0.24,0.08 -0.24,0.25l0,0.17l0.37,0l0,0.21z" id="svg_66"/>
   <path class="st9" d="m633.52,227.02c0,-0.47 0.38,-0.85 0.86,-0.85c0.47,0 0.85,0.38 0.85,0.85c0,0.47 -0.38,0.85 -0.85,0.85c-0.47,0.01 -0.86,-0.38 -0.86,-0.85zm1.51,0c0,-0.36 -0.29,-0.65 -0.65,-0.65c-0.36,0 -0.65,0.29 -0.65,0.65c0,0.36 0.29,0.65 0.65,0.65c0.36,0 0.65,-0.29 0.65,-0.65zm-0.95,-0.4l0.4,0c0.1,0 0.24,0.08 0.24,0.25c0,0.11 -0.06,0.19 -0.13,0.23l0.16,0.31l-0.19,0l-0.14,-0.27l-0.17,0l0,0.27l-0.17,0l0,-0.79zm0.33,0.39c0.05,0 0.12,-0.05 0.12,-0.14c0,-0.1 -0.07,-0.12 -0.11,-0.12l-0.17,0l0,0.26l0.16,0z" id="svg_67"/>
   <path class="st9" d="m519.11,212.68c0.08,-0.15 0.19,-0.26 0.33,-0.35c0.14,-0.09 0.28,-0.14 0.42,-0.14c0.14,0 0.25,0.05 0.33,0.14c0.09,0.09 0.13,0.22 0.13,0.36c0,0.21 -0.08,0.41 -0.25,0.58c-0.17,0.17 -0.36,0.26 -0.57,0.26c-0.19,0 -0.34,-0.07 -0.47,-0.21c-0.12,-0.14 -0.18,-0.33 -0.18,-0.55c0,-0.39 0.14,-0.73 0.42,-1.04c0.28,-0.31 0.6,-0.46 0.95,-0.46c0.13,0 0.26,0.02 0.39,0.06l-0.22,0.22c-0.13,-0.08 -0.27,-0.12 -0.42,-0.12c-0.22,0 -0.4,0.09 -0.55,0.28c-0.09,0.11 -0.16,0.26 -0.23,0.44c-0.06,0.18 -0.09,0.35 -0.09,0.5l0,0.03l0.01,0zm0.02,0.17c0.07,0.36 0.25,0.54 0.53,0.54c0.12,0 0.23,-0.05 0.31,-0.14c0.08,-0.09 0.13,-0.2 0.13,-0.34c0,-0.16 -0.04,-0.28 -0.12,-0.39c-0.08,-0.1 -0.19,-0.15 -0.31,-0.15c-0.27,0.01 -0.45,0.16 -0.54,0.48z" id="svg_68"/>
   <line class="st5" id="svg_69" x1="478.07" x2="478.07" y1="234.87" y2="49"/>
   <path class="st9" d="m478.65,213.39l0.11,0c0.07,-0.01 0.13,-0.02 0.17,-0.05c0.04,-0.02 0.07,-0.06 0.09,-0.12l0.45,-1.64c0.01,-0.03 0.01,-0.05 0.02,-0.07c0,-0.02 0.01,-0.04 0.01,-0.05c0,-0.04 -0.01,-0.06 -0.04,-0.08c-0.03,-0.01 -0.06,-0.02 -0.12,-0.02l-0.16,0.01l0,-0.05l0.04,-0.01c0.03,0 0.11,-0.02 0.24,-0.05c0.13,-0.03 0.22,-0.04 0.28,-0.06l0.05,-0.01l0.03,0l0.02,0.01c0,0.01 0,0.01 0,0.02c0,0.01 0,0.01 0,0.02l-0.54,1.99c0,0.01 0,0.02 -0.01,0.03c0,0.01 0,0.02 0,0.03c0,0.04 0.02,0.07 0.06,0.08s0.11,0.02 0.23,0.02l0,0.05l-0.93,0l0,-0.05z" id="svg_70"/>
   <path class="st9" d="m480.97,211.26l0.16,0l-0.84,2.24l-0.16,0l0.84,-2.24z" id="svg_71"/>
   <path class="st9" d="m479.82,215.26c-0.1,0.11 -0.18,0.21 -0.25,0.3c-0.11,0.16 -0.2,0.35 -0.27,0.57c-0.06,0.19 -0.1,0.38 -0.13,0.55c-0.02,0.17 -0.04,0.32 -0.04,0.44c0,0.18 0.01,0.33 0.03,0.45c0.02,0.12 0.06,0.27 0.13,0.46l-0.06,0.02c-0.12,-0.2 -0.2,-0.4 -0.25,-0.6c-0.05,-0.2 -0.08,-0.4 -0.08,-0.6c0,-0.26 0.04,-0.5 0.13,-0.7c0.13,-0.3 0.38,-0.61 0.73,-0.93l0.06,0.04z" id="svg_72"/>
   <path class="st9" d="m479.83,217.88c0.02,-0.03 0.05,-0.04 0.09,-0.04c0.03,0 0.05,0.01 0.07,0.02c0.02,0.01 0.04,0.03 0.06,0.04l0.02,0.02c0.01,0.01 0.01,0.01 0.02,0.01s0.02,0 0.03,0c0.05,0 0.14,-0.07 0.26,-0.21s0.18,-0.24 0.18,-0.3c0,-0.06 -0.02,-0.18 -0.06,-0.36c-0.04,-0.18 -0.08,-0.33 -0.12,-0.47c-0.05,-0.19 -0.1,-0.33 -0.14,-0.39c-0.04,-0.07 -0.11,-0.1 -0.19,-0.1c-0.01,0 -0.02,0 -0.03,0s-0.04,0 -0.08,0.01l0,-0.05l0.44,-0.09l0.03,0c0.03,0 0.08,0.12 0.16,0.37c0.07,0.22 0.11,0.38 0.13,0.48l0.07,0.39c0.11,-0.19 0.2,-0.34 0.25,-0.44c0.1,-0.2 0.16,-0.34 0.16,-0.42c0,-0.02 0,-0.04 -0.01,-0.05c-0.01,-0.02 -0.02,-0.03 -0.05,-0.05l-0.03,-0.01c-0.02,-0.01 -0.04,-0.03 -0.06,-0.05c-0.02,-0.02 -0.04,-0.06 -0.04,-0.1c0,-0.03 0.01,-0.06 0.03,-0.08s0.05,-0.03 0.1,-0.03c0.05,0 0.1,0.02 0.13,0.05c0.03,0.03 0.05,0.09 0.05,0.16c0,0.12 -0.06,0.3 -0.19,0.56c-0.1,0.2 -0.21,0.38 -0.33,0.57c-0.15,0.23 -0.28,0.41 -0.39,0.53c-0.17,0.2 -0.31,0.29 -0.43,0.29c-0.04,0 -0.08,-0.01 -0.12,-0.04s-0.05,-0.06 -0.05,-0.11c0,-0.06 0.02,-0.09 0.04,-0.11z" id="svg_73"/>
   <path class="st9" d="m481.41,217.98c0.11,-0.12 0.2,-0.23 0.26,-0.31c0.1,-0.16 0.19,-0.34 0.25,-0.55c0.06,-0.18 0.1,-0.36 0.13,-0.53s0.04,-0.34 0.04,-0.49c0,-0.19 -0.02,-0.36 -0.05,-0.51c-0.03,-0.15 -0.07,-0.27 -0.11,-0.36l0.06,-0.02c0.1,0.17 0.18,0.35 0.24,0.56c0.06,0.21 0.09,0.42 0.09,0.63c0,0.24 -0.04,0.46 -0.11,0.64c-0.13,0.34 -0.38,0.67 -0.76,0.99l-0.04,-0.05z" id="svg_74"/>
   <path class="st9" d="m481.5,212.68c0.08,-0.15 0.19,-0.26 0.33,-0.35c0.14,-0.09 0.28,-0.14 0.42,-0.14c0.14,0 0.25,0.05 0.33,0.14c0.09,0.09 0.13,0.22 0.13,0.36c0,0.21 -0.08,0.41 -0.25,0.58c-0.17,0.17 -0.36,0.26 -0.57,0.26c-0.19,0 -0.34,-0.07 -0.47,-0.21c-0.12,-0.14 -0.18,-0.33 -0.18,-0.55c0,-0.39 0.14,-0.73 0.42,-1.04c0.28,-0.31 0.6,-0.46 0.95,-0.46c0.13,0 0.26,0.02 0.39,0.06l-0.22,0.22c-0.13,-0.08 -0.27,-0.12 -0.42,-0.12c-0.22,0 -0.4,0.09 -0.55,0.28c-0.09,0.11 -0.16,0.26 -0.23,0.44c-0.06,0.18 -0.09,0.35 -0.09,0.5l0,0.03l0.01,0zm0.02,0.17c0.07,0.36 0.25,0.54 0.53,0.54c0.12,0 0.23,-0.05 0.31,-0.14c0.08,-0.09 0.13,-0.2 0.13,-0.34c0,-0.16 -0.04,-0.28 -0.12,-0.39c-0.08,-0.1 -0.19,-0.15 -0.31,-0.15c-0.27,0.01 -0.45,0.16 -0.54,0.48z" id="svg_75"/>
   <line class="st4" id="svg_76" x1="331.18" x2="331.18" y1="234.88" y2="49"/>
   <path class="st10" d="m439.23,76.41l0,-27.41l11.5,0l0,27.8c0,4.55 2.34,7.6 7.99,7.6c5.33,0 7.86,-3.25 7.86,-7.79l0,-27.61l11.5,0l0,27.41c0,10.72 -6.43,17.21 -19.35,17.21c-13.01,0 -19.5,-6.36 -19.5,-17.21z" id="svg_77"/>
   <path class="st10" d="m478.07,207.47l0,27.41l-11.5,0l0,-27.8c0,-4.55 -2.34,-7.6 -7.99,-7.6c-5.33,0 -7.86,3.25 -7.86,7.79l0,27.6l-11.5,0l0,-27.41c0,-10.72 6.43,-17.21 19.35,-17.21c13,0.01 19.5,6.38 19.5,17.22z" id="svg_78"/>
   <path class="st10" d="m313.97,162.6l-27.41,0l0,-11.5l27.8,0c4.55,0 7.6,-2.34 7.6,-7.99c0,-5.33 -3.25,-7.86 -7.79,-7.86l-27.61,0l0,-11.5l27.41,0c10.72,0 17.21,6.43 17.21,19.35c0,13 -6.37,19.5 -17.21,19.5z" id="svg_79"/>
   <path class="st10" d="m634.49,123.76l27.41,0l0,11.5l-27.8,0c-4.55,0 -7.6,2.34 -7.6,7.99c0,5.33 3.25,7.86 7.79,7.86l27.6,0l0,11.5l-27.41,0c-10.72,0 -17.21,-6.43 -17.21,-19.35c0.01,-13.01 6.38,-19.5 17.22,-19.5z" id="svg_80"/>
   <line class="st11" id="svg_81" x1="288.82" x2="662.12" y1="93.62" y2="93.62"/>
   <line class="st12" id="svg_82" x1="286.56" x2="661.93" y1="190.26" y2="190.26"/>
   <g class="st1" id="svg_83">
    <path class="st6" d="m621.07,231.03l-1.44,0l0,-0.25l1.44,0l0,0.25zm0,0.65l-1.44,0l0,-0.25l1.44,0l0,0.25z" id="svg_84"/>
    <path class="st6" d="m623.62,232.04l0,0.25l-1.44,0c0,-0.06 0.01,-0.12 0.03,-0.18c0.04,-0.1 0.1,-0.19 0.18,-0.29c0.08,-0.09 0.2,-0.2 0.35,-0.33c0.24,-0.19 0.4,-0.34 0.48,-0.46c0.08,-0.11 0.13,-0.22 0.13,-0.32c0,-0.1 -0.04,-0.19 -0.11,-0.26c-0.08,-0.07 -0.17,-0.11 -0.3,-0.11c-0.13,0 -0.23,0.04 -0.31,0.11c-0.08,0.08 -0.12,0.18 -0.12,0.32l-0.28,-0.03c0.02,-0.2 0.09,-0.36 0.21,-0.46c0.12,-0.11 0.29,-0.16 0.5,-0.16c0.21,0 0.38,0.06 0.5,0.17c0.12,0.11 0.18,0.26 0.18,0.42c0,0.09 -0.02,0.17 -0.05,0.25s-0.09,0.17 -0.18,0.26c-0.08,0.09 -0.22,0.22 -0.41,0.38c-0.16,0.13 -0.26,0.22 -0.31,0.27c-0.05,0.05 -0.08,0.1 -0.11,0.14l1.06,0l0,0.03z" id="svg_85"/>
    <path class="st6" d="m623.91,231.23c0,-0.25 0.03,-0.46 0.08,-0.61c0.05,-0.16 0.13,-0.27 0.24,-0.36s0.24,-0.13 0.4,-0.13c0.12,0 0.22,0.02 0.31,0.07c0.09,0.05 0.16,0.11 0.22,0.2c0.06,0.09 0.1,0.19 0.14,0.32c0.03,0.12 0.05,0.29 0.05,0.51c0,0.25 -0.03,0.46 -0.08,0.61c-0.05,0.16 -0.13,0.27 -0.24,0.36c-0.11,0.08 -0.24,0.13 -0.4,0.13c-0.21,0 -0.38,-0.07 -0.5,-0.22c-0.15,-0.18 -0.22,-0.47 -0.22,-0.88zm0.27,0c0,0.35 0.04,0.59 0.13,0.7c0.08,0.12 0.19,0.18 0.31,0.18s0.23,-0.06 0.31,-0.18s0.13,-0.35 0.13,-0.7c0,-0.35 -0.04,-0.59 -0.13,-0.71s-0.19,-0.17 -0.31,-0.17c-0.12,0 -0.22,0.05 -0.29,0.15c-0.1,0.14 -0.15,0.38 -0.15,0.73z" id="svg_86"/>
    <path class="st6" d="m625.6,231.23c0,-0.25 0.03,-0.46 0.08,-0.61c0.05,-0.16 0.13,-0.27 0.24,-0.36s0.24,-0.13 0.4,-0.13c0.12,0 0.22,0.02 0.31,0.07c0.09,0.05 0.16,0.11 0.22,0.2c0.06,0.09 0.1,0.19 0.14,0.32c0.03,0.12 0.05,0.29 0.05,0.51c0,0.25 -0.03,0.46 -0.08,0.61c-0.05,0.16 -0.13,0.27 -0.24,0.36c-0.11,0.08 -0.24,0.13 -0.4,0.13c-0.21,0 -0.38,-0.07 -0.5,-0.22c-0.14,-0.18 -0.22,-0.47 -0.22,-0.88zm0.28,0c0,0.35 0.04,0.59 0.13,0.7c0.08,0.12 0.19,0.18 0.31,0.18s0.23,-0.06 0.31,-0.18s0.13,-0.35 0.13,-0.7c0,-0.35 -0.04,-0.59 -0.13,-0.71s-0.19,-0.17 -0.31,-0.17c-0.12,0 -0.22,0.05 -0.29,0.15c-0.1,0.14 -0.15,0.38 -0.15,0.73z" id="svg_87"/>
    <path class="st6" d="m627.35,230.66c0,-0.15 0.04,-0.28 0.12,-0.39c0.08,-0.11 0.19,-0.16 0.34,-0.16c0.14,0 0.25,0.05 0.34,0.14c0.09,0.1 0.13,0.24 0.13,0.42c0,0.18 -0.04,0.32 -0.14,0.42c-0.09,0.1 -0.2,0.15 -0.34,0.15c-0.13,0 -0.24,-0.05 -0.33,-0.14c-0.07,-0.1 -0.12,-0.25 -0.12,-0.44zm0.47,-0.37c-0.07,0 -0.12,0.03 -0.17,0.08c-0.04,0.06 -0.07,0.16 -0.07,0.31c0,0.14 0.02,0.23 0.07,0.29c0.04,0.06 0.1,0.08 0.17,0.08c0.07,0 0.12,-0.03 0.17,-0.08c0.04,-0.06 0.07,-0.16 0.07,-0.31c0,-0.14 -0.02,-0.24 -0.07,-0.29c-0.05,-0.05 -0.11,-0.08 -0.17,-0.08zm0,2.08l1.19,-2.26l0.22,0l-1.19,2.26l-0.22,0zm0.94,-0.58c0,-0.15 0.04,-0.29 0.12,-0.39c0.08,-0.11 0.19,-0.16 0.34,-0.16c0.14,0 0.25,0.05 0.34,0.14c0.09,0.1 0.13,0.24 0.13,0.42c0,0.18 -0.05,0.32 -0.14,0.42c-0.09,0.1 -0.2,0.15 -0.34,0.15c-0.13,0 -0.24,-0.05 -0.33,-0.15c-0.07,-0.09 -0.12,-0.24 -0.12,-0.43zm0.47,-0.37c-0.07,0 -0.12,0.03 -0.17,0.09s-0.07,0.16 -0.07,0.31c0,0.14 0.02,0.23 0.07,0.29s0.1,0.08 0.17,0.08c0.07,0 0.12,-0.03 0.17,-0.08c0.04,-0.06 0.07,-0.16 0.07,-0.31c0,-0.14 -0.02,-0.24 -0.07,-0.29c-0.05,-0.07 -0.1,-0.09 -0.17,-0.09z" id="svg_88"/>
    <path class="st6" d="m630.94,232.29l0,-2.15l0.27,0l0,0.77c0.12,-0.14 0.28,-0.21 0.47,-0.21c0.12,0 0.22,0.02 0.3,0.07c0.09,0.04 0.15,0.11 0.19,0.19c0.04,0.08 0.06,0.2 0.06,0.35l0,0.99l-0.27,0l0,-0.99c0,-0.13 -0.03,-0.23 -0.09,-0.29c-0.06,-0.06 -0.14,-0.09 -0.25,-0.09c-0.08,0 -0.15,0.02 -0.22,0.06c-0.07,0.04 -0.12,0.1 -0.15,0.16c-0.03,0.07 -0.04,0.17 -0.04,0.29l0,0.85l-0.27,0z" id="svg_89"/>
    <path class="st6" d="m633.72,231.79l0.28,0.03c-0.04,0.16 -0.12,0.28 -0.24,0.37s-0.27,0.13 -0.45,0.13c-0.23,0 -0.41,-0.07 -0.55,-0.21c-0.14,-0.14 -0.2,-0.34 -0.2,-0.59c0,-0.26 0.07,-0.46 0.21,-0.61s0.31,-0.22 0.53,-0.22c0.21,0 0.38,0.07 0.52,0.21c0.13,0.14 0.2,0.34 0.2,0.6c0,0.02 0,0.04 0,0.07l-1.18,0c0.01,0.17 0.06,0.3 0.15,0.39c0.09,0.09 0.2,0.14 0.33,0.14c0.1,0 0.18,-0.03 0.25,-0.08s0.11,-0.12 0.15,-0.23zm-0.88,-0.43l0.88,0c-0.01,-0.13 -0.05,-0.23 -0.1,-0.29c-0.08,-0.1 -0.2,-0.15 -0.33,-0.15c-0.12,0 -0.23,0.04 -0.31,0.12s-0.13,0.19 -0.14,0.32z" id="svg_90"/>
    <path class="st6" d="m634.33,230.45l0,-0.3l0.27,0l0,0.3l-0.27,0zm0,1.84l0,-1.56l0.27,0l0,1.56l-0.27,0z" id="svg_91"/>
    <path class="st6" d="m634.96,232.42l0.26,0.04c0.01,0.08 0.04,0.14 0.09,0.17c0.07,0.05 0.16,0.07 0.27,0.07c0.12,0 0.22,-0.02 0.29,-0.07s0.11,-0.12 0.14,-0.21c0.01,-0.05 0.02,-0.17 0.02,-0.34c-0.12,0.14 -0.26,0.2 -0.44,0.2c-0.22,0 -0.39,-0.08 -0.5,-0.23s-0.18,-0.34 -0.18,-0.56c0,-0.15 0.03,-0.29 0.08,-0.41c0.05,-0.13 0.13,-0.22 0.24,-0.29s0.23,-0.1 0.37,-0.1c0.19,0 0.34,0.07 0.46,0.22l0,-0.19l0.25,0l0,1.34c0,0.24 -0.03,0.41 -0.08,0.51c-0.05,0.1 -0.13,0.18 -0.24,0.24c-0.11,0.06 -0.24,0.09 -0.4,0.09c-0.19,0 -0.34,-0.04 -0.46,-0.12c-0.12,-0.07 -0.18,-0.19 -0.17,-0.36zm0.22,-0.93c0,0.2 0.04,0.35 0.12,0.45c0.08,0.09 0.19,0.14 0.31,0.14c0.12,0 0.23,-0.05 0.31,-0.14c0.08,-0.09 0.12,-0.24 0.12,-0.44c0,-0.19 -0.04,-0.33 -0.13,-0.43s-0.19,-0.15 -0.31,-0.15c-0.12,0 -0.22,0.05 -0.3,0.14c-0.08,0.1 -0.12,0.24 -0.12,0.43z" id="svg_92"/>
    <path class="st6" d="m636.7,232.29l0,-2.15l0.27,0l0,0.77c0.12,-0.14 0.28,-0.21 0.47,-0.21c0.12,0 0.22,0.02 0.3,0.07c0.09,0.04 0.15,0.11 0.19,0.19c0.04,0.08 0.06,0.2 0.06,0.35l0,0.99l-0.27,0l0,-0.99c0,-0.13 -0.03,-0.23 -0.09,-0.29c-0.06,-0.06 -0.14,-0.09 -0.25,-0.09c-0.08,0 -0.15,0.02 -0.22,0.06c-0.07,0.04 -0.12,0.1 -0.15,0.16c-0.03,0.07 -0.04,0.17 -0.04,0.29l0,0.85l-0.27,0z" id="svg_93"/>
    <path class="st6" d="m638.99,232.05l0.04,0.23c-0.08,0.02 -0.14,0.02 -0.2,0.02c-0.1,0 -0.17,-0.02 -0.23,-0.05c-0.05,-0.03 -0.09,-0.07 -0.11,-0.12c-0.02,-0.05 -0.03,-0.15 -0.03,-0.31l0,-0.9l-0.2,0l0,-0.21l0.2,0l0,-0.39l0.27,-0.16l0,0.54l0.27,0l0,0.21l-0.27,0l0,0.91c0,0.08 0,0.12 0.01,0.15s0.02,0.04 0.05,0.05s0.05,0.02 0.09,0.02c0.02,0.03 0.06,0.02 0.11,0.01z" id="svg_94"/>
    <path class="st6" d="m640,231.51c0,-0.29 0.08,-0.5 0.24,-0.64c0.14,-0.12 0.3,-0.17 0.5,-0.17c0.22,0 0.39,0.07 0.53,0.21c0.14,0.14 0.21,0.33 0.21,0.58c0,0.2 -0.03,0.36 -0.09,0.47c-0.06,0.11 -0.15,0.2 -0.27,0.27c-0.12,0.06 -0.24,0.1 -0.38,0.1c-0.22,0 -0.4,-0.07 -0.54,-0.21c-0.13,-0.14 -0.2,-0.34 -0.2,-0.61zm0.27,0c0,0.2 0.04,0.35 0.13,0.45c0.09,0.1 0.2,0.15 0.33,0.15c0.13,0 0.24,-0.05 0.33,-0.15c0.09,-0.1 0.13,-0.25 0.13,-0.46c0,-0.19 -0.04,-0.34 -0.13,-0.44c-0.09,-0.1 -0.2,-0.15 -0.33,-0.15c-0.13,0 -0.25,0.05 -0.33,0.15c-0.08,0.1 -0.13,0.25 -0.13,0.45z" id="svg_95"/>
    <path class="st6" d="m641.86,232.29l0,-1.35l-0.24,0l0,-0.21l0.24,0l0,-0.17c0,-0.1 0.01,-0.18 0.03,-0.23c0.03,-0.07 0.07,-0.12 0.14,-0.17c0.07,-0.04 0.16,-0.06 0.27,-0.06c0.08,0 0.16,0.01 0.25,0.03l-0.04,0.23c-0.06,-0.01 -0.11,-0.01 -0.16,-0.01c-0.08,0 -0.14,0.02 -0.17,0.05c-0.03,0.03 -0.05,0.1 -0.05,0.19l0,0.14l0.31,0l0,0.21l-0.31,0l0,1.35l-0.27,0z" id="svg_96"/>
    <path class="st6" d="m644.08,232.05l0.04,0.23c-0.08,0.02 -0.14,0.02 -0.2,0.02c-0.1,0 -0.17,-0.02 -0.23,-0.05c-0.05,-0.03 -0.09,-0.07 -0.11,-0.12c-0.02,-0.05 -0.03,-0.15 -0.03,-0.31l0,-0.9l-0.2,0l0,-0.21l0.2,0l0,-0.39l0.27,-0.16l0,0.54l0.27,0l0,0.21l-0.27,0l0,0.91c0,0.08 0,0.12 0.01,0.15s0.02,0.04 0.05,0.05s0.05,0.02 0.09,0.02c0.02,0.03 0.06,0.02 0.11,0.01z" id="svg_97"/>
    <path class="st6" d="m644.34,232.29l0,-2.15l0.27,0l0,0.77c0.12,-0.14 0.28,-0.21 0.47,-0.21c0.12,0 0.22,0.02 0.3,0.07c0.09,0.04 0.15,0.11 0.19,0.19c0.04,0.08 0.06,0.2 0.06,0.35l0,0.99l-0.27,0l0,-0.99c0,-0.13 -0.03,-0.23 -0.09,-0.29c-0.06,-0.06 -0.14,-0.09 -0.25,-0.09c-0.08,0 -0.15,0.02 -0.22,0.06c-0.07,0.04 -0.12,0.1 -0.15,0.16c-0.03,0.07 -0.04,0.17 -0.04,0.29l0,0.85l-0.27,0z" id="svg_98"/>
    <path class="st6" d="m647.12,231.79l0.28,0.03c-0.04,0.16 -0.12,0.28 -0.24,0.37s-0.27,0.13 -0.45,0.13c-0.23,0 -0.41,-0.07 -0.55,-0.21c-0.14,-0.14 -0.2,-0.34 -0.2,-0.59c0,-0.26 0.07,-0.46 0.21,-0.61s0.31,-0.22 0.53,-0.22c0.21,0 0.38,0.07 0.52,0.21c0.13,0.14 0.2,0.34 0.2,0.6c0,0.02 0,0.04 0,0.07l-1.18,0c0.01,0.17 0.06,0.3 0.15,0.39c0.09,0.09 0.2,0.14 0.33,0.14c0.1,0 0.18,-0.03 0.25,-0.08s0.11,-0.12 0.15,-0.23zm-0.88,-0.43l0.88,0c-0.01,-0.13 -0.05,-0.23 -0.1,-0.29c-0.08,-0.1 -0.2,-0.15 -0.33,-0.15c-0.12,0 -0.23,0.04 -0.31,0.12s-0.13,0.19 -0.14,0.32z" id="svg_99"/>
    <path class="st6" d="m648.58,230.45l0,-0.3l0.27,0l0,0.3l-0.27,0zm0,1.84l0,-1.56l0.27,0l0,1.56l-0.27,0z" id="svg_100"/>
    <path class="st6" d="m649.24,230.43l0,-0.31l0.29,0l0,0.24c0,0.13 -0.02,0.23 -0.05,0.28c-0.04,0.08 -0.11,0.14 -0.2,0.18l-0.07,-0.1c0.05,-0.02 0.09,-0.06 0.12,-0.1c0.03,-0.05 0.04,-0.11 0.04,-0.19l-0.13,0z" id="svg_101"/>
    <path class="st6" d="m649.77,231.83l0.27,-0.04c0.01,0.11 0.06,0.19 0.12,0.24c0.07,0.06 0.16,0.08 0.29,0.08c0.12,0 0.21,-0.02 0.27,-0.07c0.06,-0.05 0.09,-0.11 0.09,-0.17c0,-0.06 -0.03,-0.11 -0.08,-0.14c-0.04,-0.02 -0.13,-0.05 -0.27,-0.09c-0.2,-0.05 -0.33,-0.09 -0.41,-0.13c-0.08,-0.04 -0.13,-0.08 -0.17,-0.15c-0.04,-0.06 -0.06,-0.13 -0.06,-0.21c0,-0.07 0.02,-0.13 0.05,-0.19c0.03,-0.06 0.08,-0.11 0.13,-0.15c0.04,-0.03 0.1,-0.06 0.17,-0.08c0.07,-0.02 0.15,-0.03 0.23,-0.03c0.12,0 0.23,0.02 0.33,0.05s0.16,0.08 0.21,0.14c0.04,0.06 0.08,0.14 0.09,0.24l-0.26,0.04c-0.01,-0.08 -0.05,-0.14 -0.1,-0.19c-0.06,-0.04 -0.14,-0.07 -0.24,-0.07c-0.12,0 -0.21,0.02 -0.26,0.06c-0.05,0.04 -0.08,0.09 -0.08,0.14c0,0.04 0.01,0.07 0.03,0.09c0.02,0.03 0.06,0.05 0.1,0.07c0.03,0.01 0.11,0.03 0.24,0.07c0.19,0.05 0.32,0.09 0.4,0.12c0.08,0.03 0.13,0.08 0.18,0.14s0.06,0.14 0.06,0.23c0,0.09 -0.03,0.17 -0.08,0.25c-0.05,0.08 -0.13,0.14 -0.23,0.18c-0.1,0.04 -0.21,0.06 -0.33,0.06c-0.21,0 -0.36,-0.04 -0.47,-0.13c-0.12,-0.07 -0.19,-0.2 -0.22,-0.36z" id="svg_102"/>
    <path class="st6" d="m653.28,232.29l0,-0.2c-0.1,0.15 -0.25,0.23 -0.44,0.23c-0.13,0 -0.24,-0.03 -0.35,-0.1c-0.11,-0.07 -0.19,-0.16 -0.25,-0.29c-0.06,-0.12 -0.09,-0.26 -0.09,-0.42c0,-0.16 0.03,-0.3 0.08,-0.42c0.05,-0.13 0.13,-0.22 0.24,-0.29c0.11,-0.07 0.22,-0.1 0.35,-0.1c0.09,0 0.18,0.02 0.25,0.06c0.07,0.04 0.13,0.09 0.18,0.15l0,-0.77l0.27,0l0,2.15l-0.24,0zm-0.85,-0.78c0,0.2 0.04,0.35 0.13,0.45c0.09,0.1 0.19,0.15 0.3,0.15c0.12,0 0.22,-0.05 0.3,-0.14c0.08,-0.09 0.12,-0.24 0.12,-0.43c0,-0.21 -0.04,-0.37 -0.12,-0.47c-0.08,-0.1 -0.19,-0.15 -0.31,-0.15c-0.12,0 -0.22,0.05 -0.3,0.14s-0.12,0.25 -0.12,0.45z" id="svg_103"/>
    <path class="st6" d="m653.85,231.51c0,-0.29 0.08,-0.5 0.24,-0.64c0.14,-0.12 0.3,-0.17 0.5,-0.17c0.22,0 0.39,0.07 0.53,0.21c0.14,0.14 0.21,0.33 0.21,0.58c0,0.2 -0.03,0.36 -0.09,0.47c-0.06,0.11 -0.15,0.2 -0.27,0.27c-0.12,0.06 -0.24,0.1 -0.38,0.1c-0.22,0 -0.4,-0.07 -0.54,-0.21c-0.13,-0.14 -0.2,-0.34 -0.2,-0.61zm0.28,0c0,0.2 0.04,0.35 0.13,0.45c0.09,0.1 0.2,0.15 0.33,0.15c0.13,0 0.24,-0.05 0.33,-0.15c0.09,-0.1 0.13,-0.25 0.13,-0.46c0,-0.19 -0.04,-0.34 -0.13,-0.44c-0.09,-0.1 -0.2,-0.15 -0.33,-0.15c-0.13,0 -0.25,0.05 -0.33,0.15c-0.09,0.1 -0.13,0.25 -0.13,0.45z" id="svg_104"/>
    <path class="st6" d="m656.23,232.05l0.04,0.23c-0.08,0.02 -0.14,0.02 -0.2,0.02c-0.1,0 -0.17,-0.02 -0.23,-0.05c-0.05,-0.03 -0.09,-0.07 -0.11,-0.12c-0.02,-0.05 -0.03,-0.15 -0.03,-0.31l0,-0.9l-0.2,0l0,-0.21l0.2,0l0,-0.39l0.27,-0.16l0,0.54l0.27,0l0,0.21l-0.27,0l0,0.91c0,0.08 0,0.12 0.01,0.15s0.02,0.04 0.05,0.05s0.05,0.02 0.09,0.02c0.03,0.03 0.06,0.02 0.11,0.01z" id="svg_105"/>
   </g>
  </g>
 </g>
</svg>